<?xml version="1.0" standalone="no"?>
<!DOCTYPE svg PUBLIC "-//W3C//DTD SVG 20010904//EN"
 "http://www.w3.org/TR/2001/REC-SVG-20010904/DTD/svg10.dtd">
<svg version="1.0" xmlns="http://www.w3.org/2000/svg"
 width="1306.000000pt" height="555.000000pt" viewBox="0 0 1306.000000 555.000000"
 preserveAspectRatio="xMidYMid meet">
<metadata>
Created by potrace 1.16, written by Peter Selinger 2001-2019
</metadata>
<g transform="translate(0.000000,555.000000) scale(0.100000,-0.100000)"
fill="#000000" stroke="none">
<path d="M5675 4798 c-3 -7 -4 -929 -3 -2048 l3 -2035 28 -3 27 -3 0 2050 0
2051 -25 0 c-14 0 -28 -6 -30 -12z"/>
<path d="M2670 4213 c-77 -7 -281 -51 -359 -77 -41 -14 -80 -26 -86 -26 -21 0
-196 -99 -305 -172 -118 -80 -277 -228 -434 -405 -72 -81 -182 -314 -211 -448
-42 -189 -46 -233 -48 -450 l-2 -220 39 -180 c41 -191 58 -240 124 -349 23
-37 42 -75 42 -83 0 -9 65 -84 144 -167 78 -84 145 -157 147 -163 7 -17 165
-141 257 -200 146 -94 290 -158 462 -203 134 -36 174 -42 295 -47 231 -9 426
21 646 102 144 53 305 129 333 159 20 21 69 58 107 81 44 26 162 130 226 198
73 79 147 194 226 352 122 246 162 417 160 695 -1 276 -41 454 -152 693 -68
145 -157 262 -386 507 -97 104 -360 267 -535 331 -181 65 -440 93 -690 72z
m543 -58 c48 -14 96 -25 108 -25 35 0 231 -94 324 -155 51 -34 141 -110 207
-175 65 -63 124 -118 132 -122 31 -17 159 -200 225 -323 79 -144 133 -277 152
-372 8 -40 16 -58 21 -50 5 7 6 1 3 -14 -4 -14 3 -64 14 -111 25 -103 27 -186
5 -259 -14 -45 -14 -62 -4 -102 10 -38 9 -61 -1 -115 -12 -60 -14 -64 -21 -37
-5 21 -6 14 -4 -23 2 -36 0 -49 -6 -40 -7 9 -8 2 -4 -21 4 -25 3 -32 -7 -28
-9 3 -19 -16 -31 -63 -48 -187 -265 -524 -412 -640 -17 -14 -86 -69 -154 -123
-112 -91 -133 -103 -256 -153 -74 -30 -145 -54 -159 -54 -14 0 -25 -5 -25 -10
0 -6 -12 -8 -27 -4 -19 4 -24 3 -15 -4 10 -7 0 -13 -35 -22 -26 -7 -56 -12
-65 -11 -9 1 -43 -7 -76 -17 -60 -20 -118 -26 -277 -26 -106 -1 -175 5 -175
15 0 4 -35 10 -77 14 -79 7 -102 11 -208 40 -273 74 -528 241 -727 476 -174
205 -303 412 -314 506 -5 48 -5 48 29 -32 40 -95 56 -124 103 -190 20 -27 57
-79 82 -115 165 -235 307 -365 515 -474 45 -24 96 -50 112 -59 36 -19 296 -91
380 -106 209 -35 538 -39 600 -7 17 8 76 27 130 41 125 33 407 171 423 208 2
4 9 4 14 1 7 -4 8 -2 4 4 -4 7 23 31 66 60 82 56 143 112 209 192 25 30 58 69
75 85 55 54 155 243 209 395 48 135 53 155 64 271 7 63 16 147 22 186 11 75 7
113 -28 323 -37 218 -128 407 -300 621 -103 128 -142 167 -316 314 -214 181
-274 215 -467 269 -211 59 -337 67 -575 36 -288 -37 -588 -151 -783 -297 -76
-58 -222 -198 -222 -214 0 -5 -7 -9 -15 -9 -9 0 -20 -11 -25 -25 -5 -13 -18
-30 -30 -37 -11 -7 -20 -17 -20 -22 0 -5 -8 -19 -19 -30 -32 -36 -151 -217
-151 -230 0 -7 -3 -15 -6 -19 -18 -18 -74 -217 -88 -313 -38 -263 -44 -621
-11 -687 8 -16 15 -42 15 -56 l0 -26 -14 27 c-8 14 -24 73 -37 130 -20 91 -23
129 -23 328 1 209 2 233 27 330 30 120 52 188 95 281 16 36 33 80 37 98 4 18
13 35 20 37 7 3 16 15 19 27 3 12 21 40 41 62 20 21 42 53 49 70 16 36 129
145 229 219 40 29 81 63 91 75 11 12 53 45 94 72 40 28 82 59 93 70 50 50 336
157 479 179 41 7 167 13 279 15 112 2 205 6 207 8 8 8 121 -13 207 -38z m-209
-50 c44 -8 112 -17 152 -20 147 -10 286 -74 432 -198 80 -69 87 -74 77 -58
-14 25 46 -24 105 -83 30 -31 60 -56 66 -56 18 0 142 -140 223 -249 63 -86
136 -218 196 -355 25 -57 75 -254 75 -294 0 -10 -22 -42 -50 -69 -51 -51 -64
-83 -32 -83 21 1 40 16 70 54 l22 29 0 -81 c0 -44 -7 -115 -15 -158 -8 -44
-17 -92 -20 -109 -3 -16 -10 -64 -15 -105 -5 -41 -13 -86 -19 -100 -9 -23 -10
-21 -10 17 -1 23 -6 53 -12 67 -10 20 -9 30 5 50 19 31 21 66 3 66 -17 0 -39
-25 -61 -67 -9 -18 -23 -33 -31 -33 -8 0 -15 -6 -15 -12 0 -7 -3 -24 -6 -38
l-6 -25 16 22 c25 33 56 20 56 -24 0 -19 5 -43 11 -54 9 -17 13 -18 26 -7 15
12 15 10 9 -17 -9 -37 -74 -185 -88 -203 -8 -8 -14 -9 -23 -2 -9 7 -21 7 -39
0 -15 -5 -38 -10 -51 -10 -23 0 -40 -24 -29 -41 7 -12 56 -12 88 1 14 5 26 7
26 3 0 -19 -56 -91 -144 -185 -96 -104 -126 -128 -111 -90 4 9 11 52 16 96 7
70 5 87 -16 155 -14 42 -25 90 -25 106 1 29 1 29 16 10 15 -19 16 -19 9 12 -7
34 5 48 40 48 14 0 19 6 17 18 -2 9 2 17 8 17 5 0 10 8 10 17 0 13 8 9 34 -16
22 -21 41 -31 50 -28 19 8 21 40 4 67 -10 15 -10 22 0 32 11 11 18 7 41 -21
16 -20 33 -31 39 -27 15 9 16 73 1 82 -10 6 -9 24 7 101 3 18 17 39 30 48 29
19 31 51 5 58 -10 2 -27 21 -37 42 -14 31 -15 38 -3 46 10 6 15 2 19 -19 4
-18 8 -23 13 -15 4 7 4 21 -1 30 -5 10 -12 38 -16 63 -7 49 0 45 36 -19 23
-41 48 -41 48 0 0 46 -20 106 -42 126 -19 17 -20 17 -34 -2 -12 -16 -14 -16
-14 -2 0 9 -9 25 -20 35 -13 12 -18 25 -14 35 7 20 18 21 46 6 27 -14 35 -4
49 61 15 69 15 113 0 118 -6 2 -11 13 -11 25 0 20 0 20 15 1 9 -12 14 -14 15
-6 0 8 -9 25 -20 39 -11 14 -20 31 -20 38 0 17 -51 95 -62 95 -21 0 -59 -58
-130 -199 l-32 -63 -24 28 c-18 21 -23 35 -19 60 4 22 1 37 -9 45 -21 18 -17
39 9 39 40 0 127 47 127 68 0 13 -9 21 -25 24 -13 3 -26 2 -27 -1 -2 -3 -24
-21 -50 -38 l-48 -33 0 29 c0 46 31 76 78 76 45 0 43 -4 57 110 4 28 9 57 12
65 3 8 6 47 6 85 l0 70 -39 20 c-21 11 -53 22 -70 23 -26 3 -35 -3 -59 -37
-30 -44 -29 -44 -63 -35 -21 6 -22 10 -16 55 6 41 4 49 -9 49 -9 0 -23 -13
-32 -30 -16 -31 -29 -37 -40 -19 -4 6 -22 8 -46 4 -21 -4 -39 -3 -39 2 0 15
23 33 42 33 10 0 23 10 29 23 6 13 20 27 31 32 39 18 64 151 31 161 -10 3 -29
11 -43 19 -14 7 -65 18 -115 24 -49 6 -108 14 -130 17 -68 8 -95 25 -96 59 -1
29 -1 30 -9 5 -4 -14 -15 -41 -24 -60 l-15 -35 6 61 6 62 -59 37 c-33 21 -73
50 -91 65 l-32 28 -82 -35 c-59 -26 -83 -32 -89 -23 -5 8 -9 5 -13 -9 -3 -12
-21 -28 -41 -36 -34 -14 -47 -37 -27 -49 4 -3 11 -25 15 -48 15 -95 21 -104
85 -118 56 -12 167 -9 237 5 30 7 30 7 45 -57 l15 -63 47 2 c45 1 47 0 47 -27
0 -17 -7 -33 -17 -39 -10 -6 -13 -11 -6 -11 7 0 13 -19 15 -47 3 -44 5 -48 31
-51 16 -2 35 2 42 8 8 7 21 10 29 7 8 -3 20 0 26 8 11 14 104 20 95 6 -7 -13
53 -131 71 -138 38 -15 40 53 2 115 -23 38 -20 45 15 37 22 -6 25 -11 21 -35
-7 -34 11 -48 35 -26 17 15 61 23 61 10 0 -3 -16 -24 -35 -47 -19 -22 -35 -46
-35 -52 0 -7 -16 -20 -35 -31 -40 -21 -30 -34 27 -34 33 0 40 -5 64 -45 14
-25 36 -53 48 -63 31 -24 39 -41 28 -55 -12 -15 -25 -179 -15 -192 11 -14 100
-85 107 -85 3 0 3 7 0 15 -8 20 25 20 54 -1 28 -19 19 -36 -14 -28 -48 12 -23
-5 31 -21 30 -8 55 -21 55 -27 0 -20 -32 -48 -55 -48 -12 0 -25 -3 -28 -7 -9
-9 23 -43 40 -43 15 0 46 -65 40 -83 -2 -7 2 -26 9 -42 9 -23 10 -34 0 -46
-10 -14 -13 -15 -25 -1 -8 8 -17 28 -21 46 -8 30 -8 30 -9 -11 -1 -23 -5 -45
-11 -48 -5 -3 -10 -11 -10 -18 0 -6 7 -2 15 9 13 18 14 18 15 1 0 -11 14 -24
35 -33 19 -8 35 -18 35 -22 0 -5 -18 -23 -41 -41 -24 -20 -39 -39 -36 -49 3
-18 8 -19 45 -7 19 5 22 3 22 -18 0 -14 -7 -30 -15 -37 -13 -10 -15 -9 -15 11
0 13 -4 19 -8 13 -4 -6 -15 -14 -25 -17 -14 -5 -17 -13 -12 -35 4 -21 1 -33
-14 -46 -19 -17 -20 -17 -31 3 -6 13 -21 21 -36 21 -24 0 -26 -2 -20 -35 6
-30 3 -39 -20 -60 -34 -31 -67 -36 -39 -5 10 11 15 20 10 20 -4 0 -22 -16 -40
-36 l-33 -36 -48 36 c-26 20 -54 36 -63 36 -14 0 -14 -2 -1 -10 12 -8 13 -13
3 -27 -7 -10 -20 -31 -29 -47 -27 -48 -85 -126 -95 -126 -21 0 -2 45 39 91 15
17 20 29 13 33 -16 10 -67 -77 -75 -126 -6 -40 -18 -71 -53 -140 -15 -30 -10
-35 90 -92 26 -15 47 -32 47 -38 0 -5 -9 -29 -21 -52 -44 -87 -49 -98 -44
-105 6 -11 -67 -68 -91 -72 -27 -4 -64 10 -64 24 0 20 40 48 59 42 11 -3 27 6
47 27 54 59 58 66 44 83 -7 8 -10 22 -6 30 3 8 1 15 -4 15 -6 0 -10 -8 -10
-17 0 -10 -16 -29 -36 -43 -20 -13 -41 -34 -46 -46 -10 -22 -12 -21 -57 22
-78 75 -123 51 -61 -34 17 -23 30 -46 30 -51 0 -5 -12 -19 -27 -31 l-28 -22
-22 29 c-27 33 -28 48 -7 98 13 33 14 40 1 52 -12 12 -18 10 -41 -18 -29 -34
-30 -34 -56 13 -6 10 -6 27 1 47 13 36 29 41 29 10 0 -18 2 -19 15 -9 8 7 15
9 15 6 0 -4 5 -4 11 0 8 5 8 9 -1 14 -6 4 -9 17 -5 33 7 25 7 25 27 5 11 -11
22 -17 26 -14 3 4 0 12 -6 18 -7 7 -12 20 -12 29 0 24 -28 32 -35 10 -3 -10
-15 -27 -27 -37 -12 -11 -19 -14 -17 -9 26 54 39 83 43 98 4 13 16 17 51 17
29 0 45 -4 45 -12 1 -25 39 57 40 85 0 15 5 27 10 27 6 0 10 5 10 10 0 6 -6 9
-12 8 -10 -2 -13 32 -13 147 0 160 2 178 16 169 5 -3 10 -36 9 -72 0 -37 1
-80 1 -97 1 -16 -2 -52 -4 -80 -3 -27 -4 -40 -1 -28 8 32 29 46 43 29 9 -11 8
-27 -4 -70 -17 -58 -13 -81 11 -72 9 3 14 -2 14 -14 0 -11 5 -20 11 -20 7 0 9
11 5 30 -3 20 3 53 19 97 l24 67 -30 30 c-17 17 -36 51 -42 75 -7 24 -17 46
-24 48 -7 3 -13 20 -13 37 0 18 -7 41 -15 52 -8 10 -15 31 -15 47 0 15 -3 27
-7 27 -127 4 -512 1 -550 -4 l-53 -8 0 -50 c0 -50 -13 -88 -30 -88 -6 0 -9 27
-7 63 2 54 -3 72 -37 142 -21 44 -45 95 -53 113 -14 34 -30 41 -39 17 -4 -8
-45 -44 -93 -78 -47 -35 -110 -85 -140 -110 -33 -28 -59 -44 -70 -40 -11 3
-12 2 -3 -4 9 -7 -4 -25 -48 -69 -32 -32 -59 -65 -60 -73 0 -8 13 -56 30 -107
16 -50 34 -121 40 -156 12 -77 28 -127 47 -149 12 -15 26 -12 157 32 145 48
238 95 256 129 6 10 10 32 10 48 0 17 6 32 15 36 8 3 15 16 15 28 -1 22 -1 22
-15 4 -15 -20 -15 -20 -14 0 1 10 5 33 9 49 6 23 8 25 9 8 1 -25 17 -39 24
-21 3 7 6 -12 6 -43 1 -30 -3 -59 -8 -65 -4 -5 -21 -43 -36 -84 -15 -41 -36
-92 -47 -112 -16 -34 -21 -37 -48 -31 -28 5 -31 2 -50 -38 -11 -24 -20 -51
-20 -60 0 -9 -9 -24 -21 -35 -12 -10 -32 -40 -45 -66 -13 -27 -28 -48 -33 -48
-5 0 -23 -11 -39 -25 -28 -23 -33 -24 -82 -15 -29 6 -71 10 -92 10 -31 0 -49
8 -81 35 -27 24 -51 35 -72 35 -40 0 -107 64 -99 96 3 12 -1 26 -11 34 -13 11
-19 10 -39 -9 l-23 -22 -32 42 c-29 40 -42 89 -23 89 5 0 21 -14 37 -30 16
-17 37 -30 48 -30 16 0 18 5 13 34 -4 19 -3 37 2 40 5 3 7 18 4 32 -3 18 -1
25 6 20 6 -3 13 -21 17 -39 16 -79 16 -79 116 -46 76 26 75 25 60 43 -6 7 -18
51 -26 97 -8 46 -20 98 -26 116 -13 39 -8 81 6 48 9 -20 24 -35 37 -35 4 0 0
12 -8 28 -7 15 -14 33 -14 39 0 9 -10 11 -32 7 -36 -7 -158 -52 -170 -63 -4
-3 -1 -28 7 -55 19 -63 18 -79 -1 -43 -9 16 -18 26 -21 23 -9 -9 29 -76 40
-69 4 3 5 -10 2 -29 -3 -18 -7 -43 -8 -54 -1 -21 -3 -20 -39 9 -34 27 -38 35
-38 76 0 25 -5 53 -10 61 -16 25 -44 -2 -54 -51 -5 -24 -10 -45 -12 -47 -4 -6
-64 28 -64 36 0 5 6 14 13 21 10 11 6 12 -20 6 -36 -7 -40 0 -18 29 21 28 8
38 -38 31 -35 -6 -43 -4 -58 16 -12 15 -19 19 -19 10 0 -8 7 -22 16 -32 9 -10
14 -26 10 -35 -6 -16 -8 -15 -26 1 -11 10 -26 15 -36 11 -16 -6 -16 -18 2 -60
7 -19 7 -19 -19 0 -17 12 -26 29 -27 47 0 15 -5 27 -11 27 -6 0 -8 -9 -4 -20
9 -27 -10 -25 -29 2 -11 15 -14 33 -10 55 4 20 1 39 -6 48 -18 22 -33 18 -20
-4 12 -23 13 -41 2 -41 -4 0 -13 14 -19 30 -6 17 -7 30 -2 30 5 0 9 10 9 23 1
20 2 21 14 5 7 -10 16 -18 20 -18 13 0 5 20 -19 46 -14 15 -25 33 -25 40 0 8
-6 14 -14 14 -20 0 -27 25 -20 70 4 23 2 40 -5 45 -7 4 -9 19 -5 41 5 28 2 37
-17 53 -17 14 -23 28 -22 57 1 22 -3 44 -9 51 -5 7 -8 18 -5 25 3 9 7 6 13 -7
4 -11 14 -26 21 -33 10 -10 10 -18 2 -34 -9 -16 -7 -24 11 -40 16 -15 25 -17
33 -9 8 8 8 14 -1 23 -7 7 -12 20 -12 29 0 9 -7 22 -15 29 -8 7 -15 20 -15 30
0 10 -7 20 -15 24 -8 3 -15 13 -15 23 0 10 -7 27 -15 37 -15 19 -15 19 -15 -5
0 -19 -2 -21 -10 -9 -5 8 -10 35 -10 60 1 36 3 42 11 27 10 -18 11 -18 25 0 7
10 14 13 14 6 0 -18 100 -93 116 -86 8 3 14 15 14 28 0 14 7 25 19 28 15 4 23
-4 35 -33 21 -52 46 -56 107 -14 28 19 55 34 59 34 4 0 14 7 21 16 11 14 10
19 -9 35 l-23 18 23 6 c13 3 48 1 78 -5 71 -13 153 -18 137 -8 -6 4 -28 8 -47
8 -37 0 -69 14 -58 26 4 3 -1 23 -11 43 -11 20 -22 58 -26 83 -5 33 -13 49
-26 53 -10 4 -60 -11 -116 -34 -53 -22 -99 -39 -101 -37 -10 10 -3 138 8 151
17 21 28 19 32 -6 2 -12 15 -31 31 -43 27 -20 28 -20 62 -2 19 11 35 23 35 28
0 5 -11 1 -25 -8 -14 -9 -28 -14 -31 -12 -3 3 -8 38 -11 77 -5 58 -9 71 -23
71 -10 0 -23 -13 -30 -30 -14 -33 -37 -56 -47 -47 -3 4 2 25 12 46 10 22 15
47 12 56 -4 8 -2 25 3 38 5 12 12 49 16 82 4 33 9 54 11 47 3 -7 16 3 33 27
23 31 28 47 24 73 -4 26 0 39 20 60 14 15 26 37 26 49 0 18 -6 14 -29 -22 -16
-24 -34 -62 -40 -84 -12 -46 -59 -107 -67 -87 -9 21 -33 13 -40 -14 -4 -14 -3
-46 1 -72 8 -52 8 -64 1 -137 -3 -27 -7 -97 -9 -155 l-4 -105 -33 -10 c-29 -9
-31 -12 -25 -40 17 -84 18 -115 3 -115 -16 0 -61 44 -53 52 3 3 -1 11 -10 18
-10 8 -15 9 -15 1 0 -6 -4 -11 -9 -11 -13 0 -7 60 8 89 7 12 10 25 7 28 -3 3
-11 -6 -17 -20 -15 -34 -31 -25 -18 10 12 33 3 43 -16 17 -13 -17 -14 -16 -9
21 9 64 10 66 38 55 23 -8 27 -5 61 56 20 35 33 69 30 74 -12 19 -34 10 -64
-27 -42 -51 -39 -67 3 -18 41 47 58 41 27 -8 -23 -38 -49 -63 -56 -55 -15 15
-15 66 -1 81 20 19 20 26 0 48 -9 10 -11 19 -5 23 5 4 12 -3 16 -14 3 -11 11
-20 16 -20 13 0 11 13 -6 36 -17 22 -20 70 -5 79 6 4 16 -7 23 -24 12 -29 13
-29 25 -10 11 17 11 24 0 37 -11 13 -11 15 5 9 16 -6 16 -5 1 24 -8 17 -13 37
-10 45 3 8 2 14 -3 14 -18 0 -4 111 18 140 11 16 21 34 21 39 0 6 22 33 50 61
34 34 48 56 44 68 -4 11 -3 13 3 5 13 -18 31 -2 29 27 -1 17 6 28 21 35 12 5
27 20 33 33 8 19 16 23 35 19 21 -3 25 0 25 19 0 12 5 26 11 30 13 8 29 -14
22 -32 -2 -6 0 -15 5 -18 5 -3 12 4 15 16 4 12 1 25 -5 29 -8 5 -6 15 6 33 9
15 14 30 12 35 -3 5 0 14 7 20 11 8 14 4 14 -22 0 -17 -5 -38 -11 -46 -9 -12
-8 -12 12 -2 12 6 22 17 22 24 0 14 94 107 109 107 5 0 11 17 13 38 3 31 7 37
26 36 12 0 22 5 22 13 0 14 12 17 24 6 3 -4 -8 -22 -26 -41 l-33 -35 32 21
c17 12 35 22 40 22 4 0 13 11 19 24 9 20 9 23 -8 18 -31 -8 -20 13 20 35 34
20 38 20 52 5 14 -15 15 -14 18 10 3 23 14 31 75 56 107 44 286 89 427 106 69
9 136 17 150 20 58 8 140 5 214 -9z m106 -190 c0 -8 -11 -25 -25 -39 -14 -14
-25 -34 -25 -44 0 -11 -10 -26 -22 -35 -28 -18 -18 -32 17 -23 21 5 25 12 25
41 0 29 4 36 25 41 14 3 25 12 25 20 0 8 5 14 10 14 6 0 10 -11 10 -25 0 -18
-4 -23 -15 -19 -15 6 -20 -14 -17 -59 1 -12 -15 -25 -55 -42 -96 -43 -101 -43
-109 1 -4 24 -3 39 4 42 7 2 7 12 0 33 -12 35 -5 59 17 59 9 0 37 11 63 25 54
29 72 31 72 10z m127 -18 c27 -19 56 -37 66 -40 19 -7 25 -71 6 -82 -6 -4 -8
-14 -5 -22 4 -10 0 -13 -12 -11 -9 2 -17 9 -17 16 0 7 -6 16 -13 21 -11 7 -11
9 2 14 9 4 16 13 16 21 0 13 -27 31 -43 28 -4 -1 -13 9 -19 23 -6 14 -17 25
-25 25 -7 0 -13 2 -13 4 0 2 -3 11 -6 20 -10 25 12 19 63 -17z m-1312 -87
c-10 -11 -20 -18 -23 -15 -7 6 18 35 31 35 5 0 2 -9 -8 -20z m1292 -2 c6 16
23 5 23 -14 0 -11 -8 -14 -27 -12 -21 2 -29 9 -31 28 -3 25 -2 25 14 5 11 -14
18 -16 21 -7z m-67 -13 c0 -8 -4 -15 -10 -15 -5 0 -7 7 -4 15 4 8 8 15 10 15
2 0 4 -7 4 -15z m-1270 -10 c0 -12 -33 -55 -41 -55 -14 0 -10 22 8 42 15 17
33 24 33 13z m1515 -79 c21 -44 24 -61 17 -88 -5 -19 -16 -34 -26 -36 -14 -3
-16 4 -14 49 2 43 0 54 -13 57 -11 2 -20 -8 -28 -29 -12 -36 -25 -31 -36 12
-6 22 -1 29 29 47 20 12 36 26 36 32 0 21 10 8 35 -44z m22 39 c9 -25 -4 -29
-17 -6 -7 15 -7 21 0 21 6 0 13 -7 17 -15z m-164 -9 c27 -21 1 -31 -28 -12
-14 9 -25 19 -25 21 0 10 36 4 53 -9z m219 -4 c4 -12 -1 -18 -13 -19 -19 -2
-26 17 -12 30 11 12 20 8 25 -11z m-364 -17 c-11 -25 -19 -29 -48 -26 -42 5
-44 14 -5 31 58 26 67 26 53 -5z m467 15 c3 -5 22 -10 41 -10 53 0 124 -21
124 -36 0 -18 -59 -83 -60 -66 0 7 -4 11 -9 8 -5 -4 -21 -2 -34 3 -18 7 -27 7
-31 -2 -4 -7 -4 0 -1 15 4 22 2 25 -15 21 -11 -3 -20 0 -20 6 0 6 9 11 19 11
27 0 37 20 12 21 -12 1 -25 3 -31 4 -5 1 -17 3 -25 4 -22 2 -18 31 4 31 11 0
23 -4 26 -10z m-395 -15 c0 -8 -7 -15 -15 -15 -9 0 -12 6 -9 15 4 8 10 15 15
15 5 0 9 -7 9 -15z m350 -25 c0 -5 -2 -10 -4 -10 -3 0 -8 5 -11 10 -3 6 -1 10
4 10 6 0 11 -4 11 -10z m-164 -31 c7 -12 -25 -89 -38 -89 -11 0 -10 15 4 61
11 40 21 48 34 28z m125 -51 c61 -4 69 -1 69 23 0 10 5 19 11 19 7 0 9 -10 5
-26 l-7 -26 56 7 c30 3 55 3 55 -2 0 -28 -199 -173 -239 -173 -7 0 -11 37 -10
118 1 64 4 105 6 90 4 -24 9 -26 54 -30z m-16 42 c3 -5 1 -10 -4 -10 -6 0 -11
5 -11 10 0 6 2 10 4 10 3 0 8 -4 11 -10z m75 -11 c0 -13 -17 -20 -34 -13 -24
9 -19 22 9 22 14 0 25 -4 25 -9z m170 -54 c-7 -9 -15 -13 -18 -10 -3 2 1 11 8
20 7 9 15 13 18 10 3 -2 -1 -11 -8 -20z m-46 -49 c-3 -8 -13 -17 -22 -21 -13
-5 -13 -2 3 15 21 24 26 25 19 6z m106 -81 c0 -19 -21 -65 -31 -65 -4 0 -2 18
3 40 10 39 28 55 28 25z m-255 -15 c-16 -11 -34 -20 -40 -20 -12 0 46 38 60
39 6 1 -3 -8 -20 -19z m462 -6 c46 -18 57 -34 21 -30 -30 4 -78 27 -78 38 0
11 8 10 57 -8z m-97 -34 c0 -5 -4 -10 -10 -10 -5 0 -10 5 -10 10 0 6 5 10 10
10 6 0 10 -4 10 -10z m-207 -35 c19 -39 22 -75 7 -75 -9 0 -50 83 -50 101 0
23 28 5 43 -26z m161 -19 c-4 -19 -1 -26 16 -31 17 -5 20 -12 15 -28 -4 -12
-6 -36 -6 -54 3 -67 -36 -37 -59 47 -10 39 -9 44 11 66 28 30 31 30 23 0z
m163 -111 l-12 -80 -45 0 c-42 0 -45 2 -54 34 -7 26 -7 36 2 39 7 2 9 8 6 13
-12 20 7 87 27 92 12 3 19 0 19 -9 0 -24 47 -17 55 9 14 43 16 -13 2 -98z
m-237 6 c0 -9 -24 -21 -42 -21 -6 0 -6 6 2 15 14 16 40 20 40 6z m-2190 -101
c0 -14 -5 -32 -10 -40 -7 -11 -10 1 -10 40 0 39 3 51 10 40 5 -8 10 -26 10
-40z m2380 -20 c-36 -12 -60 -12 -60 0 0 6 19 10 43 9 36 -1 38 -2 17 -9z
m-2576 -34 c-3 -15 -8 -25 -11 -23 -2 3 -1 17 3 31 3 15 8 25 11 23 2 -3 1
-17 -3 -31z m56 14 c0 -5 -2 -10 -4 -10 -3 0 -8 5 -11 10 -3 6 -1 10 4 10 6 0
11 -4 11 -10z m2570 -73 c-22 -19 -70 -38 -70 -27 0 14 42 40 64 40 18 0 18
-2 6 -13z m-2362 -120 c2 -31 -1 -57 -6 -57 -15 0 -22 26 -22 77 0 68 24 50
28 -20z m-302 -26 c-8 -35 -18 -66 -22 -70 -3 -3 -4 3 -1 14 3 11 8 46 12 79
4 36 10 55 16 49 6 -6 4 -33 -5 -72z m2789 -59 c5 -47 3 -72 -4 -77 -6 -3 -35
14 -65 39 -29 25 -58 46 -65 46 -8 0 -8 5 1 19 9 15 15 17 25 9 9 -7 17 -7 28
2 17 14 20 50 5 50 -5 0 -10 5 -10 11 0 6 6 9 14 6 9 -4 16 3 20 16 6 20 8 19
25 -15 10 -21 22 -68 26 -106z m12 96 c-3 -8 -6 -5 -6 6 -1 11 2 17 5 13 3 -3
4 -12 1 -19z m30 -155 c-3 -10 -5 -4 -5 12 0 17 2 24 5 18 2 -7 2 -21 0 -30z
m-2397 8 c0 -5 -7 -11 -14 -14 -10 -4 -13 -1 -9 9 6 15 23 19 23 5z m-453 -53
c-3 -8 -6 -5 -6 6 -1 11 2 17 5 13 3 -3 4 -12 1 -19z m437 7 c-4 -8 -1 -15 5
-15 6 0 11 -7 11 -15 0 -8 -4 -15 -9 -15 -10 0 -22 40 -15 52 9 14 14 9 8 -7z
m2546 -5 c0 -19 -32 -60 -46 -60 -19 0 -17 13 7 44 21 27 39 34 39 16z m-2650
-20 c10 -14 17 -17 27 -8 7 6 13 7 13 2 0 -5 4 -2 10 6 7 12 10 11 16 -5 4
-11 15 -25 23 -32 24 -18 8 -28 -109 -67 -119 -39 -122 -38 -134 36 -9 52 9
72 61 71 21 -1 45 3 53 8 21 12 24 11 40 -11z m2432 -60 c11 0 18 -5 15 -12
-5 -17 -38 -11 -57 9 -13 14 -13 15 3 9 10 -3 28 -6 39 -6z m-2732 -15 c0 -8
-4 -15 -10 -15 -5 0 -10 7 -10 15 0 8 5 15 10 15 6 0 10 -7 10 -15z m2770 -62
c-1 -36 -2 -37 -15 -19 -16 21 -19 39 -8 49 15 16 23 5 23 -30z m75 -14 c12
-36 14 -54 6 -62 -7 -7 -12 -5 -17 9 -4 10 -13 34 -20 53 -18 42 -17 51 0 51
8 0 22 -22 31 -51z m-2778 11 c12 0 58 -48 51 -55 -9 -9 -98 57 -98 72 0 14 2
14 18 0 10 -10 23 -17 29 -17z m261 21 c-6 -16 -89 -81 -104 -81 -9 0 -14 11
-14 30 0 23 5 30 19 30 10 0 34 7 52 15 40 17 52 18 47 6z m32 -21 c0 -13 -79
-70 -97 -70 -20 0 -7 17 39 51 43 30 58 36 58 19z m2417 -72 c-3 -7 -5 -2 -5
12 0 14 2 19 5 13 2 -7 2 -19 0 -25z m280 -5 c-3 -10 -5 -4 -5 12 0 17 2 24 5
18 2 -7 2 -21 0 -30z m-3071 -104 c7 -21 8 -41 4 -44 -12 -7 -17 3 -25 55 -9
53 5 46 21 -11z m1275 18 c-6 -6 -11 -17 -11 -25 0 -12 3 -12 18 -1 14 11 15
11 5 0 -7 -8 -9 -26 -6 -41 3 -17 0 -31 -7 -35 -10 -6 -11 -2 -7 16 10 39 -6
54 -29 28 -10 -13 -13 -19 -6 -15 18 11 15 -29 -4 -49 -17 -16 -26 -119 -16
-172 9 -46 19 -3 17 74 -2 52 1 70 7 58 6 -9 8 -25 5 -36 -3 -10 -1 -22 4 -25
5 -3 7 -9 4 -15 -10 -15 6 -79 17 -72 7 4 8 -6 4 -28 -4 -19 -8 -43 -10 -54
-8 -54 -19 -84 -29 -78 -5 3 -8 0 -5 -8 4 -12 -99 -109 -116 -109 -9 0 -6 52
4 75 6 14 9 16 11 5 3 -24 17 76 28 200 6 63 13 142 17 175 6 61 28 110 44
100 5 -3 21 10 37 30 15 19 30 30 32 24 2 -6 -2 -16 -8 -22z m1615 -96 c-16
-29 -34 -47 -41 -39 -2 2 8 24 22 48 29 48 44 41 19 -9z m-68 27 c-4 -13 -75
-57 -90 -58 -19 0 -5 22 29 45 41 27 67 33 61 13z m-2810 -36 c6 -18 -15 -14
-22 4 -4 10 -1 14 6 12 6 -2 14 -10 16 -16z m1126 -136 c-7 -71 -18 -152 -24
-180 -33 -165 -41 -191 -70 -221 -18 -18 -33 -26 -38 -20 -5 6 -16 45 -27 87
-15 64 -16 81 -5 107 7 17 16 28 21 26 13 -8 29 66 38 173 l8 97 49 42 c33 30
50 39 55 30 4 -6 0 -70 -7 -141z m166 101 c0 -6 -3 -7 -7 -4 -3 4 -12 2 -20
-4 -10 -9 -13 -8 -13 3 0 8 3 17 6 21 9 8 34 -3 34 -16z m50 2 c0 -5 -4 -9
-10 -9 -5 0 -10 7 -10 16 0 8 5 12 10 9 6 -3 10 -10 10 -16z m50 -28 c-1 -13
-3 -13 -15 3 -19 26 -19 42 0 26 8 -7 15 -20 15 -29z m521 25 c18 -9 32 -10
43 -4 25 14 46 2 46 -24 0 -19 2 -20 10 -8 7 11 10 -3 10 -47 0 -36 -4 -63
-10 -63 -5 0 -10 9 -10 20 0 12 -9 22 -24 26 -25 6 -30 33 -12 62 4 7 1 12 -8
12 -8 0 -17 -4 -20 -9 -8 -12 -56 10 -56 26 0 6 -6 14 -12 16 -9 4 -8 6 2 6 8
1 27 -5 41 -13z m-398 -23 c-1 -6 4 -14 12 -17 9 -3 15 1 15 9 0 27 18 15 34
-22 l17 -38 -5 33 c-3 17 -1 32 4 32 6 0 10 -4 10 -10 0 -5 7 -10 15 -10 18 0
67 -49 60 -60 -3 -5 5 -10 17 -12 13 -2 27 -13 33 -25 5 -13 15 -23 22 -23 7
0 13 -4 13 -10 0 -5 14 -17 32 -26 47 -25 71 -51 64 -70 -5 -13 -2 -15 18 -10
30 7 43 -9 24 -31 -11 -15 -10 -16 10 -11 12 4 22 2 22 -3 0 -5 -4 -9 -9 -9
-5 0 -11 -7 -14 -14 -6 -16 16 -12 41 7 18 14 26 2 27 -43 0 -39 8 -50 20 -30
10 17 25 11 25 -10 0 -15 -7 -20 -29 -20 -16 0 -31 6 -34 13 -3 9 -7 9 -20 -2
-26 -21 -20 -31 16 -32 30 -1 29 -2 -11 -11 -50 -11 -94 -1 -52 12 22 7 20 8
-13 9 -45 1 -97 34 -97 60 0 11 -12 24 -30 31 -34 14 -65 45 -34 34 27 -10 10
5 -71 61 -38 27 -93 68 -122 92 -47 40 -52 48 -58 97 -4 30 -4 60 0 66 9 14
51 8 48 -7z m217 8 c0 -5 -6 -11 -14 -14 -9 -4 -12 -14 -9 -26 6 -25 -4 -27
-29 -4 -24 21 -23 32 5 43 29 12 47 12 47 1z m56 -7 c-4 -11 1 -18 14 -21 12
-3 20 -13 19 -22 -1 -9 -1 -27 0 -41 1 -22 3 -23 12 -7 17 29 28 19 26 -25 -1
-24 3 -44 8 -45 6 -2 9 21 7 57 -3 53 -2 59 13 54 10 -4 15 -14 12 -25 -3 -11
-2 -19 3 -19 4 0 7 -27 6 -60 0 -42 -4 -60 -13 -60 -7 0 -13 7 -13 15 0 8 -6
12 -14 9 -14 -5 -30 28 -26 56 1 12 -1 13 -11 3 -20 -20 -38 -15 -51 12 -7 15
-17 24 -25 21 -7 -3 -14 -2 -14 2 -6 32 -5 52 2 52 5 0 9 -4 9 -10 0 -16 17
-12 24 6 3 8 2 24 -4 33 -9 19 -4 31 13 31 5 0 6 -7 3 -16z m1091 -61 c-2 -16
-4 -5 -4 22 0 28 2 40 4 28 2 -13 2 -35 0 -50z m-2859 26 c2 -23 2 -23 -13 -5
-18 24 -20 39 -2 34 6 -3 13 -15 15 -29z m1249 -6 c-16 -16 -17 -16 -17 3 0
26 11 37 24 24 7 -7 5 -16 -7 -27z m112 -18 c0 -11 -6 -33 -14 -50 l-13 -30
-1 42 c-1 23 -5 45 -11 48 -5 3 -10 12 -10 18 0 7 4 6 10 -3 8 -12 10 -10 10
9 0 24 0 24 15 5 8 -10 14 -28 14 -39z m371 47 c0 -13 -12 -22 -22 -16 -10 6
-1 24 13 24 5 0 9 -4 9 -8z m100 -11 c0 -6 -4 -13 -10 -16 -5 -3 -10 1 -10 9
0 9 5 16 10 16 6 0 10 -4 10 -9z m-1790 -36 c0 -8 -7 -15 -15 -15 -8 0 -15 7
-15 15 0 8 7 15 15 15 8 0 15 -7 15 -15z m935 -64 c-3 -86 -13 -131 -24 -112
-5 7 -13 -6 -21 -31 -12 -40 -13 -41 -20 -18 -26 83 -40 128 -45 141 -4 10 12
29 46 57 28 23 55 42 59 42 4 0 6 -35 5 -79z m1770 12 c4 -14 2 -23 -4 -23
-14 0 -51 59 -51 80 0 20 46 -28 55 -57z m-1496 17 c-6 -16 -15 -28 -20 -25
-10 7 0 37 15 47 16 11 16 11 5 -22z m41 -95 c0 -92 -3 -108 -20 -125 -11 -11
-25 -20 -31 -20 -15 0 -5 53 20 102 10 21 14 39 9 40 -8 3 10 108 19 108 2 0
3 -47 3 -105z m617 83 c-3 -8 -6 -5 -6 6 -1 11 2 17 5 13 3 -3 4 -12 1 -19z
m-478 -82 c-11 -13 -29 3 -29 24 0 10 5 31 12 47 l12 28 6 -45 c3 -25 3 -49
-1 -54z m1199 60 c18 -19 32 -43 32 -53 -1 -13 -11 -6 -40 27 -22 25 -40 48
-40 53 0 15 17 6 48 -27z m-671 -15 c1 -34 13 -58 13 -28 0 10 7 17 15 17 12
0 15 -15 15 -76 0 -67 -2 -75 -15 -64 -8 7 -15 27 -15 44 0 22 -3 27 -9 17
-15 -23 -37 -6 -35 27 1 17 5 36 10 43 5 9 1 11 -14 7 -17 -5 -22 -2 -22 14 0
10 4 17 9 14 5 -3 12 1 15 10 10 26 31 10 33 -25z m132 -34 c15 -40 23 -87 14
-87 -7 0 -43 95 -43 114 0 14 21 -6 29 -27z m-532 -63 c60 -40 219 -182 216
-193 -1 -3 8 -9 19 -14 34 -12 12 -20 -23 -8 -18 6 -66 11 -108 11 -75 0 -77
1 -134 46 -32 25 -61 54 -65 64 -4 10 -6 55 -4 100 l4 81 19 -25 c10 -13 44
-41 76 -62z m-207 -26 c3 -62 2 -63 -21 -42 -16 14 -19 26 -14 49 3 16 6 46 6
65 l0 35 13 -32 c8 -17 15 -51 16 -75z m557 60 c-3 -8 -6 -5 -6 6 -1 11 2 17
5 13 3 -3 4 -12 1 -19z m563 -44 c0 -8 -5 -12 -10 -9 -6 4 -8 11 -5 16 9 14
15 11 15 -7z m-120 -22 c0 -4 -6 -14 -12 -21 -11 -10 -10 -11 3 -6 10 4 19 -2
26 -17 18 -37 24 -86 11 -94 -7 -5 -9 -2 -5 8 3 10 -1 18 -13 21 -14 4 -18 0
-16 -18 1 -13 10 -35 19 -49 9 -14 13 -27 9 -30 -11 -6 -3 -66 8 -66 5 0 10 5
12 12 2 6 10 8 16 4 9 -5 5 -17 -13 -40 -17 -22 -23 -40 -19 -51 7 -16 3 -17
-31 -12 -21 4 -59 20 -84 36 -25 17 -61 38 -78 48 -18 9 -33 23 -33 31 0 11 3
12 13 3 11 -8 25 -1 61 33 l47 43 -15 36 c-14 35 -14 37 19 81 32 40 47 53 68
55 4 1 7 -3 7 -7z m-1630 -12 c0 -5 -5 -10 -11 -10 -5 0 -7 5 -4 10 3 6 8 10
11 10 2 0 4 -4 4 -10z m1410 -62 c-26 -69 -45 -87 -35 -33 8 49 33 98 45 90 6
-3 1 -28 -10 -57z m-1431 43 c9 -1 11 -9 7 -26 -4 -16 0 -34 10 -50 9 -14 13
-32 9 -45 -4 -11 -2 -20 4 -20 6 0 11 -7 11 -16 0 -19 25 -46 34 -36 8 7 26
-16 26 -34 0 -6 -17 -16 -39 -22 -75 -23 -73 -24 -110 112 -18 68 -30 129 -26
135 3 6 19 9 33 7 15 -2 33 -5 41 -5z m655 -51 c11 -11 0 -40 -14 -40 -6 0 -8
4 -5 10 3 5 -5 15 -19 22 -14 6 -26 15 -26 21 0 10 50 0 64 -13z m1124 -35 c0
-16 -2 -15 -8 5 -11 34 -11 60 0 35 5 -11 8 -29 8 -40z m272 46 c0 -12 -26
-21 -61 -21 -18 0 -28 4 -24 10 4 6 11 8 16 5 5 -4 17 -1 26 4 22 13 43 14 43
2z m-1996 -17 c3 -9 5 -30 5 -47 -1 -21 -3 -25 -6 -12 -3 11 -9 24 -14 30 -12
12 -12 45 0 45 5 0 12 -7 15 -16z m-414 -35 c-18 -16 -38 -25 -43 -22 -6 3 5
18 24 34 18 15 38 25 43 21 5 -3 -5 -18 -24 -33z m190 -28 c0 -16 -9 -39 -19
-53 -13 -16 -17 -29 -10 -39 14 -23 10 -49 -7 -49 -15 0 -16 9 -11 69 6 73 21
116 38 106 5 -4 9 -19 9 -34z m714 24 c21 -9 36 -21 34 -26 -2 -6 -35 -24 -73
-41 -68 -30 -100 -30 -100 1 0 11 82 80 96 81 4 0 23 -7 43 -15z m-982 -19
c22 -30 36 -82 19 -72 -10 7 -51 78 -51 91 0 12 16 3 32 -19z m1279 -32 c11
-13 7 -15 -32 -10 -24 2 -45 5 -46 5 -2 1 -3 14 -3 31 l0 29 34 -20 c19 -11
40 -27 47 -35z m889 40 c0 -8 -4 -12 -10 -9 -5 3 -10 10 -10 16 0 5 5 9 10 9
6 0 10 -7 10 -16z m-1115 -4 c-3 -5 -10 -10 -16 -10 -5 0 -9 5 -9 10 0 6 7 10
16 10 8 0 12 -4 9 -10z m125 -34 c0 -26 5 -46 13 -49 13 -5 -35 -27 -60 -27
-17 0 -13 26 12 87 19 46 35 41 35 -11z m791 -7 c-31 -25 -39 -17 -16 17 13
20 20 23 28 14 9 -9 6 -16 -12 -31z m179 27 c0 -16 -18 -31 -27 -22 -8 8 5 36
17 36 5 0 10 -6 10 -14z m-2023 -20 c15 -12 38 -28 49 -34 14 -8 23 -24 26
-50 4 -25 16 -49 37 -69 36 -36 42 -60 12 -43 -31 16 -88 12 -95 -6 -9 -25
-34 0 -42 42 -6 32 -24 48 -24 22 0 -8 -3 -9 -8 -3 -4 6 -19 18 -34 28 -32 20
-35 35 -12 51 12 9 13 17 5 39 -8 21 -7 28 7 36 27 16 48 13 79 -13z m2100 -8
c-3 -7 -5 -2 -5 12 0 14 2 19 5 13 2 -7 2 -19 0 -25z m-2263 -20 c36 -42 45
-63 25 -56 -16 5 -83 98 -71 98 6 0 27 -19 46 -42z m543 10 c-3 -8 -6 -5 -6 6
-1 11 2 17 5 13 3 -3 4 -12 1 -19z m1656 -9 c3 -12 10 -18 16 -14 14 8 14 -1
1 -26 -7 -12 -7 -19 -1 -19 8 0 -12 -48 -36 -89 -6 -10 -21 12 -16 25 3 8 8
12 11 10 3 -3 11 6 18 20 10 19 11 31 3 45 -5 11 -7 24 -4 29 3 6 1 10 -4 10
-6 0 -11 7 -11 15 0 22 17 18 23 -6z m-703 -9 c0 -5 -6 -13 -14 -17 -8 -4 -15
-12 -15 -18 0 -5 -5 -11 -11 -13 -8 -3 -10 3 -6 16 6 19 3 20 -30 17 -20 -2
-32 0 -28 5 19 18 104 26 104 10z m36 -9 c-3 -5 15 -6 39 -3 26 2 45 0 45 -5
0 -15 -38 -46 -58 -48 -9 0 -23 -4 -30 -9 -6 -4 -17 -4 -22 -1 -6 4 -18 1 -26
-6 -27 -22 -26 -1 3 40 15 22 34 40 41 41 7 0 11 -4 8 -9z m-1175 -40 c39 -39
49 -61 27 -61 -16 0 -88 71 -88 87 0 23 21 14 61 -26z m499 30 c0 -11 -39 -25
-47 -18 -3 3 -2 10 2 16 8 13 45 15 45 2z m580 -15 c0 -15 -24 -28 -34 -19 -7
7 13 33 25 33 5 0 9 -6 9 -14z m850 -26 c0 -19 -17 -36 -26 -27 -3 2 -2 16 2
31 7 28 24 26 24 -4z m-977 0 c-5 -19 8 -25 44 -21 8 1 10 -5 6 -15 -6 -15 0
-16 48 -11 53 7 54 7 26 -9 -32 -17 -313 -104 -339 -104 -15 0 -15 4 -7 30 6
17 14 30 18 30 4 0 13 18 20 40 14 48 33 59 114 69 34 5 65 9 69 10 3 0 4 -8
1 -19z m74 13 c-11 -10 -57 -13 -57 -2 0 5 14 9 32 9 17 0 28 -3 25 -7z m63
-28 c0 -8 -7 -15 -15 -15 -16 0 -20 12 -8 23 11 12 23 8 23 -8z m139 -73 c-30
-76 -59 -122 -59 -92 0 9 -6 7 -20 -8 -16 -17 -25 -19 -43 -13 -18 7 -26 5
-35 -10 -7 -10 -23 -19 -35 -19 -13 0 -27 -3 -31 -7 -4 -4 -32 -15 -64 -25
-50 -15 -69 -16 -152 -6 -52 6 -99 15 -104 19 -6 6 -5 9 2 9 7 0 12 7 12 15 0
8 14 22 31 30 39 21 173 57 220 60 20 2 49 10 65 18 16 8 48 19 69 23 22 4 34
9 27 12 -10 3 -10 7 -1 18 17 21 31 17 24 -6 -5 -15 -3 -19 10 -14 9 4 14 13
11 20 -6 16 30 38 50 30 7 -3 18 4 24 15 6 11 15 17 20 14 4 -3 -5 -40 -21
-83z m-179 69 c0 -12 -20 -25 -27 -18 -7 7 6 27 18 27 5 0 9 -4 9 -9z m-1315
-39 c-6 -7 -35 18 -35 31 0 5 9 2 20 -8 11 -10 18 -20 15 -23z m2137 -5 c-7
-8 -9 -16 -6 -20 3 -3 3 -15 -1 -27 -5 -14 -10 -19 -17 -12 -6 6 -4 23 6 47 9
21 19 35 23 32 3 -4 1 -13 -5 -20z m-1152 -7 c0 -12 -11 -43 -25 -70 -31 -62
-55 -129 -46 -134 3 -2 40 -7 81 -11 41 -4 93 -12 114 -18 37 -11 38 -12 15
-18 -13 -4 -43 -7 -66 -8 -38 -1 -73 -20 -73 -40 0 -22 30 -31 82 -25 l55 6
34 -61 c21 -37 40 -61 50 -61 37 0 27 55 -18 102 -16 17 -23 33 -19 44 3 9 1
23 -6 31 -10 12 7 13 125 7 128 -6 137 -6 143 12 4 10 19 47 34 81 l26 63 22
-21 c18 -16 21 -27 16 -59 -5 -32 -3 -41 10 -46 10 -4 22 -2 29 5 15 15 27 14
27 -2 0 -7 8 -20 19 -29 33 -28 17 -62 -35 -76 -76 -21 -120 -63 -81 -78 21
-8 129 46 134 67 3 11 11 19 18 19 7 0 26 16 42 36 28 34 29 35 61 21 76 -32
180 34 222 140 32 81 31 80 92 53 29 -13 57 -27 62 -31 13 -11 -47 -61 -177
-150 -195 -131 -289 -171 -487 -207 -180 -32 -319 -41 -414 -26 -45 8 -98 14
-118 14 -20 0 -39 4 -42 9 -4 5 -39 15 -79 21 -39 7 -77 16 -83 21 -6 5 -27
12 -48 16 -20 5 -37 13 -37 18 -1 6 27 19 62 31 66 22 82 41 58 70 -6 8 -10
16 -8 18 61 48 79 46 79 -6 0 -66 18 -120 38 -116 14 3 17 15 16 76 -2 83 -11
125 -24 117 -6 -3 -14 -3 -20 0 -9 6 10 40 51 90 9 11 19 35 23 54 11 57 66
100 66 51z m1177 -42 c-3 -8 -6 -5 -6 6 -1 11 2 17 5 13 3 -3 4 -12 1 -19z
m-1964 -5 l32 -18 -29 -3 c-40 -5 -76 6 -76 23 0 20 34 19 73 -2z m127 -41
c-6 -10 -15 -30 -22 -47 l-12 -30 -4 31 c-1 16 2 43 8 58 8 23 13 26 25 16 10
-8 11 -17 5 -28z m-107 3 l47 0 0 -47 c0 -54 10 -59 44 -23 13 14 28 25 33 25
5 0 24 -16 42 -34 27 -28 39 -34 61 -30 21 5 35 -1 62 -25 28 -24 47 -32 89
-35 69 -5 119 -16 119 -27 0 -9 -86 -49 -106 -49 -20 0 -27 -19 -14 -35 10
-13 8 -15 -16 -16 -25 -1 -23 -3 16 -15 l45 -13 -40 4 c-49 5 -80 16 -67 24 5
3 1 19 -9 36 -16 25 -19 26 -19 10 0 -36 -20 6 -20 45 l-1 35 -12 -29 -13 -30
-21 23 c-20 21 -42 14 -28 -9 3 -5 -7 -5 -25 1 -33 12 -42 24 -11 16 16 -4 18
-1 11 22 -4 14 -13 37 -19 51 -10 22 -11 20 -7 -17 2 -24 1 -43 -3 -43 -12 0
-107 70 -96 70 6 1 -2 8 -17 16 -16 8 -28 19 -28 24 0 5 -7 7 -16 3 -10 -4
-17 2 -21 16 -3 12 -18 28 -34 37 -37 19 -38 37 -1 27 15 -5 48 -8 75 -8z
m1747 -32 c-11 -17 -11 -17 -6 0 3 10 6 24 7 30 0 9 2 9 5 0 3 -7 0 -20 -6
-30z m-391 -50 c-18 -39 -23 -44 -26 -26 -5 27 39 116 45 91 2 -9 -7 -39 -19
-65z m132 46 c35 -28 53 -69 30 -69 -11 0 -81 80 -81 92 0 14 11 9 51 -23z
m163 19 c-15 -26 -48 -58 -61 -58 -20 0 -16 18 12 45 25 26 62 35 49 13z
m-1728 -17 c14 -11 21 -22 16 -25 -5 -3 -19 4 -30 15 -37 33 -25 41 14 10z
m1294 -41 c0 -6 -6 -26 -14 -44 l-14 -33 -78 4 c-44 3 -85 6 -91 8 -22 7 -14
23 15 28 15 3 43 8 62 12 19 4 41 11 47 17 7 6 19 8 28 5 8 -4 17 -2 20 3 8
13 25 13 25 0z m-559 -135 c6 -86 -15 -86 -22 0 -4 39 -4 74 -1 79 9 16 20
-19 23 -79z m809 25 c-21 -29 -40 -39 -40 -21 0 5 12 24 27 42 33 38 43 22 13
-21z m-542 -12 c-4 -12 -117 -33 -126 -23 -2 2 -2 11 1 20 8 20 131 23 125 3z
m-388 -33 c-14 -17 -114 -49 -133 -42 -16 6 92 57 122 57 20 0 21 -2 11 -15z
m445 -66 c23 -43 2 -42 -23 2 -17 29 -19 37 -7 33 9 -4 22 -19 30 -35z m400
31 c-9 -14 -76 -41 -89 -37 -15 5 54 47 77 47 10 0 15 -5 12 -10z"/>
<path d="M4382 2380 c0 -19 2 -27 5 -17 2 9 2 25 0 35 -3 9 -5 1 -5 -18z"/>
<path d="M3238 1123 c7 -3 16 -2 19 1 4 3 -2 6 -13 5 -11 0 -14 -3 -6 -6z"/>
<path d="M2301 3981 c-20 -37 -42 -113 -39 -134 5 -37 31 -25 49 23 26 71 32
130 14 130 -8 0 -19 -8 -24 -19z m19 -38 c0 -10 -9 -36 -19 -58 -22 -46 -28
-24 -10 38 10 38 29 51 29 20z"/>
<path d="M2610 3976 c0 -28 64 -89 88 -84 26 5 20 33 -16 72 -38 43 -72 48
-72 12z m69 -22 c24 -31 26 -44 8 -44 -14 0 -67 50 -67 63 0 18 41 4 59 -19z"/>
<path d="M2845 3975 c-5 -2 -22 -6 -36 -9 -16 -3 -37 -23 -58 -57 -32 -48 -36
-51 -70 -46 -20 2 -47 -1 -61 -6 -14 -6 -42 -11 -62 -12 -30 -1 -39 3 -44 19
-19 61 -54 50 -54 -16 0 -34 -3 -39 -17 -33 -34 14 -48 15 -63 6 -12 -8 -12
-12 3 -29 16 -18 15 -20 -24 -46 -39 -25 -43 -25 -60 -10 -24 21 -53 14 -57
-14 -3 -17 2 -25 17 -29 26 -7 33 -27 17 -49 -12 -16 -18 -17 -55 -5 -34 10
-46 21 -69 61 -15 27 -32 52 -39 54 -12 5 -128 -48 -138 -63 -9 -15 37 1 73
26 19 13 40 23 47 23 15 0 41 -29 49 -56 3 -11 29 -35 56 -53 28 -18 50 -36
50 -41 0 -12 33 -18 55 -10 17 6 16 8 -8 14 -56 14 -21 61 37 50 31 -5 36 -4
36 13 0 10 -5 24 -11 30 -12 12 14 57 40 68 23 9 81 -6 81 -21 0 -8 9 -14 20
-14 17 0 20 7 20 39 0 22 3 46 6 55 8 20 34 21 34 2 0 -13 4 -13 28 0 15 7 34
14 42 14 13 0 13 1 0 10 -11 7 0 10 38 8 49 -1 55 1 89 38 20 21 36 44 35 50
-3 13 51 26 72 18 22 -8 42 6 25 17 -14 9 -26 10 -44 4z m-341 -157 c4 -27 2
-48 -3 -48 -11 0 -21 36 -21 80 0 49 18 26 24 -32z m-59 -24 c35 -23 20 -38
-16 -17 -29 17 -38 33 -19 33 6 0 22 -7 35 -16z m-139 -89 c9 -14 23 -25 30
-25 8 0 14 -4 14 -10 0 -17 -20 -11 -56 18 -37 29 -43 42 -19 42 8 0 22 -11
31 -25z"/>
<path d="M2920 3960 c0 -5 12 -10 26 -10 14 0 23 4 19 10 -3 6 -15 10 -26 10
-10 0 -19 -4 -19 -10z"/>
<path d="M2890 3912 c6 -13 14 -21 18 -18 3 4 -2 14 -12 24 -18 16 -18 16 -6
-6z"/>
<path d="M2810 3889 c0 -43 36 -112 66 -126 13 -6 24 -8 24 -3 0 4 -6 10 -14
13 -9 4 -12 14 -9 26 3 11 -3 43 -12 70 -12 38 -22 51 -36 51 -15 0 -19 -7
-19 -31z m40 -15 c6 -14 10 -37 9 -52 -1 -25 -2 -24 -20 13 -10 22 -19 46 -19
53 0 22 20 13 30 -14z"/>
<path d="M2741 3787 c-8 -23 -8 -42 -2 -58 8 -21 10 -17 10 23 1 26 6 50 11
53 6 4 10 -21 9 -67 0 -45 -3 -66 -8 -53 -7 17 -9 16 -14 -10 -6 -36 -2 -42
18 -25 21 18 20 10 -25 -130 -54 -167 -59 -204 -31 -234 l22 -23 -45 -37 c-24
-20 -48 -36 -53 -36 -6 0 -16 12 -23 26 -25 45 -90 65 -90 27 0 -22 101 -153
117 -153 8 0 16 14 20 30 3 18 18 39 35 52 17 11 38 34 47 49 l18 29 64 -49
c74 -55 132 -118 124 -132 -4 -5 3 -9 15 -9 11 0 28 -5 38 -11 31 -19 112 37
144 100 34 67 36 69 35 30 -3 -44 24 -60 54 -34 12 11 30 34 40 50 l19 30 0
-29 c0 -23 3 -27 18 -21 9 4 24 9 34 12 9 3 18 13 21 23 3 10 18 21 36 25 38
8 51 25 18 25 -13 0 -42 -16 -65 -36 -26 -22 -42 -30 -42 -22 0 18 41 58 59
58 13 0 50 39 51 53 0 14 -52 29 -64 17 -7 -7 -1 -10 18 -10 18 0 26 -5 24
-12 -6 -16 -108 -24 -108 -9 0 6 5 12 10 12 6 1 14 2 19 3 23 3 22 16 -1 16
-30 0 -53 -23 -44 -45 3 -8 17 -15 31 -15 29 0 32 -12 9 -31 -13 -10 -17 -10
-24 1 -9 14 -21 10 -60 -17 -23 -18 -24 -17 -16 2 17 42 17 58 -1 25 -13 -26
-19 -30 -21 -17 -4 21 25 70 37 62 13 -8 24 46 12 58 -6 6 -11 21 -11 33 0 24
-36 110 -49 119 -5 3 -7 -4 -4 -15 3 -11 1 -20 -4 -20 -17 0 -52 58 -48 80 3
14 0 20 -8 17 -7 -3 -11 -10 -9 -16 1 -7 -2 -10 -8 -6 -6 3 -8 11 -5 16 4 5
-1 9 -9 9 -9 0 -33 15 -53 33 -44 39 -188 137 -201 137 -5 0 -17 -10 -25 -22
-15 -22 -16 -21 -16 31 -1 49 0 52 16 40 15 -12 16 -12 10 4 -4 10 -7 21 -7
23 0 2 -13 4 -29 4 -24 0 -31 -6 -40 -33z m166 -110 c37 -25 43 -42 12 -32
-18 6 -19 5 -8 -14 18 -28 2 -40 -17 -13 -8 12 -19 20 -24 17 -4 -3 -11 2 -14
11 -9 24 -8 26 17 19 21 -6 21 -6 3 9 -11 9 -23 16 -28 16 -4 0 -8 5 -8 11 0
14 24 5 67 -24z m-69 -250 c3 -108 0 -193 -5 -198 -6 -6 -23 3 -46 23 -29 26
-38 44 -45 84 -7 44 -4 67 29 180 21 71 38 131 39 134 0 3 6 -4 13 -15 7 -13
13 -87 15 -208z m119 146 c-3 -10 -5 -4 -5 12 0 17 2 24 5 18 2 -7 2 -21 0
-30z m109 -46 c8 -15 13 -31 10 -36 -3 -4 -1 -22 4 -40 6 -24 5 -31 -5 -31
-10 0 -8 -9 6 -37 21 -40 27 -163 9 -163 -5 0 -10 -7 -10 -16 0 -29 -52 -105
-69 -102 -14 3 -16 22 -18 133 -1 72 -4 143 -7 158 -4 18 -1 34 8 43 12 12 17
9 35 -19 11 -17 21 -25 21 -17 0 19 -30 55 -52 63 -12 4 -18 17 -18 34 0 22 2
25 10 13 8 -13 10 -12 10 3 0 10 -5 27 -11 38 -5 11 -7 29 -4 40 7 20 8 20 37
-8 16 -15 36 -41 44 -56z m-166 53 c12 -11 23 -32 24 -48 1 -16 7 -36 13 -43
6 -8 11 -38 10 -68 -2 -29 0 -54 3 -56 4 -2 8 -54 9 -115 3 -126 0 -129 -67
-80 -32 23 -42 36 -41 58 0 23 2 24 8 8 15 -39 21 3 10 84 -7 58 -7 86 1 95 8
9 8 15 0 20 -18 11 -11 28 10 22 26 -7 25 0 -1 22 -19 15 -20 20 -9 40 8 17 9
26 1 34 -13 13 -15 47 -3 47 5 0 19 -9 32 -20z m249 -124 c32 -33 33 -35 18
-67 -9 -19 -18 -49 -22 -67 -4 -18 -11 -30 -16 -26 -12 7 -12 101 1 106 6 2 5
13 -3 28 -36 69 -28 78 22 26z m71 -106 c0 -5 -4 -10 -10 -10 -5 0 -10 5 -10
10 0 6 5 10 10 10 6 0 10 -4 10 -10z m-639 -127 c47 -52 75 -114 52 -113 -11
1 -93 115 -93 129 0 18 15 13 41 -16z m139 -2 c0 -12 -49 -51 -63 -51 -6 0 2
14 18 30 29 30 45 38 45 21z m550 2 c0 -13 -48 -68 -54 -63 -7 8 31 70 44 70
5 0 10 -3 10 -7z m-255 -143 c3 -5 1 -10 -4 -10 -6 0 -11 5 -11 10 0 6 2 10 4
10 3 0 8 -4 11 -10z"/>
<path d="M3020 3514 c1 -16 28 -45 34 -36 3 5 -3 17 -14 27 -11 10 -20 14 -20
9z"/>
<path d="M3000 3391 c0 -5 7 -15 17 -22 15 -13 15 -12 4 9 -12 23 -21 28 -21
13z"/>
<path d="M3060 3352 c6 -13 14 -21 18 -18 3 4 -2 14 -12 24 -18 16 -18 16 -6
-6z"/>
<path d="M2616 3793 c-10 -3 -14 -8 -9 -12 5 -3 13 -36 16 -73 5 -56 4 -66 -8
-61 -13 4 -13 1 0 -23 21 -41 19 -50 -15 -64 -40 -17 -115 -99 -102 -112 5 -5
19 -7 30 -4 30 10 93 63 113 95 15 24 15 31 3 60 -17 41 -18 38 6 44 17 4 20
14 20 57 0 53 13 60 30 16 7 -17 9 -18 9 -3 1 21 -49 88 -64 86 -5 -1 -19 -4
-29 -6z m39 -121 c-11 -11 -25 21 -25 59 0 56 14 56 23 -1 5 -28 6 -54 2 -58z
m-35 -129 c-1 -19 -74 -83 -95 -83 -18 0 1 30 37 58 41 32 58 39 58 25z"/>
<path d="M2435 3720 c-16 -7 -17 -9 -3 -9 9 -1 20 4 23 9 7 11 7 11 -20 0z"/>
<path d="M2537 3702 c-10 -10 -17 -24 -17 -32 0 -7 9 -1 20 13 12 15 27 24 35
20 8 -3 15 0 15 6 0 18 -35 13 -53 -7z"/>
<path d="M1929 3684 c-13 -15 -43 -35 -66 -46 -25 -11 -43 -26 -43 -35 0 -15
2 -15 18 0 10 10 23 17 28 17 6 0 30 20 54 45 24 25 42 45 39 45 -3 0 -16 -12
-30 -26z"/>
<path d="M2027 3647 c-28 -31 -36 -36 -32 -20 6 20 3 19 -29 -9 -20 -17 -34
-34 -31 -36 2 -2 11 3 20 12 31 31 46 17 20 -18 -20 -27 -19 -36 6 -36 18 0
20 -4 14 -32 -4 -18 -10 -37 -12 -42 -8 -12 -23 15 -23 42 0 15 -5 22 -12 19
-16 -5 -16 -123 0 -139 16 -16 32 0 32 34 0 22 4 29 15 24 23 -8 45 33 45 85
0 34 5 51 21 65 12 10 25 30 31 43 l9 25 22 -23 c21 -21 21 -23 5 -35 -16 -12
-15 -14 10 -25 22 -10 25 -10 15 0 -18 18 -16 32 2 26 8 -4 17 -2 20 3 3 5 -3
11 -13 14 -11 4 -31 20 -46 36 -14 17 -32 30 -39 30 -6 -1 -29 -20 -50 -43z
m53 2 c0 -16 -94 -101 -98 -88 -5 14 67 99 84 99 8 0 14 -5 14 -11z m-54 -145
c-9 -25 -24 -7 -18 22 4 23 6 24 14 10 5 -10 7 -24 4 -32z m-69 -81 c-3 -10
-5 -4 -5 12 0 17 2 24 5 18 2 -7 2 -21 0 -30z"/>
<path d="M2409 3663 c-13 -15 -12 -15 9 -4 23 12 28 21 13 21 -5 0 -15 -7 -22
-17z"/>
<path d="M1951 3658 c-1 -9 -11 -20 -23 -24 -13 -4 -40 -25 -61 -46 -27 -28
-32 -36 -15 -28 13 7 32 21 43 31 11 11 31 27 44 37 14 11 21 25 18 33 -4 11
-6 10 -6 -3z"/>
<path d="M3194 3632 c-17 -10 -20 -63 -5 -92 15 -29 50 -59 69 -60 20 0 14 62
-10 110 -24 46 -35 55 -54 42z m41 -45 c40 -95 23 -122 -19 -31 -31 66 -30 64
-10 64 8 0 21 -15 29 -33z"/>
<path d="M2411 3585 c-71 -26 -87 -38 -76 -55 19 -30 173 14 188 54 13 33 -25
34 -112 1z m83 -10 c-6 -14 -40 -28 -101 -40 -55 -11 -38 12 25 33 70 25 83
26 76 7z"/>
<path d="M2665 3600 c3 -5 8 -10 11 -10 2 0 4 5 4 10 0 6 -5 10 -11 10 -5 0
-7 -4 -4 -10z"/>
<path d="M1790 3570 c-8 -5 -12 -12 -9 -15 4 -3 12 1 19 10 14 17 11 19 -10 5z"/>
<path d="M2090 3550 c0 -6 7 -10 15 -10 8 0 15 2 15 4 0 2 -7 6 -15 10 -8 3
-15 1 -15 -4z"/>
<path d="M2668 3517 c-62 -56 -112 -177 -73 -177 19 0 73 95 81 143 4 20 9 37
13 37 3 0 12 9 19 20 17 27 14 26 -40 -23z m-8 -42 c0 -16 -54 -108 -57 -98
-6 16 33 103 46 103 6 0 11 -2 11 -5z"/>
<path d="M2153 3504 c-54 -47 -69 -84 -34 -84 24 0 101 83 101 110 0 29 -8 25
-67 -26z m36 -6 c0 -16 -58 -63 -66 -54 -7 7 46 66 59 66 4 0 8 -6 7 -12z"/>
<path d="M1664 3498 c-44 -53 -71 -138 -44 -138 25 0 90 105 90 145 0 27 -19
24 -46 -7z m5 -58 c-21 -37 -39 -52 -39 -31 0 5 12 30 27 57 19 34 29 44 31
32 2 -10 -7 -36 -19 -58z"/>
<path d="M1783 3508 c-31 -35 -39 -56 -12 -32 13 12 35 25 48 29 18 6 20 9 10
16 -20 12 -23 12 -46 -13z"/>
<path d="M2469 3508 l-12 -23 24 20 c13 11 26 21 28 22 2 2 -3 3 -12 3 -9 0
-22 -10 -28 -22z"/>
<path d="M2263 3487 c-19 -28 -28 -84 -24 -144 1 -15 27 -17 36 -3 3 5 12 43
19 85 16 90 4 113 -31 62z m13 -104 c-4 -12 -11 -23 -16 -23 -14 0 -12 63 2
97 l12 28 4 -39 c2 -22 1 -50 -2 -63z"/>
<path d="M3735 3510 c-3 -5 -1 -10 4 -10 6 0 11 5 11 10 0 6 -2 10 -4 10 -3 0
-8 -4 -11 -10z"/>
<path d="M2070 3500 c0 -5 5 -10 11 -10 5 0 7 5 4 10 -3 6 -8 10 -11 10 -2 0
-4 -4 -4 -10z"/>
<path d="M1855 3490 c-3 -5 -8 -38 -12 -73 -6 -72 8 -96 36 -61 21 26 17 144
-4 144 -8 0 -16 -4 -20 -10z m23 -70 c-2 -24 -9 -45 -15 -48 -14 -4 -17 26 -7
77 9 46 26 23 22 -29z"/>
<path d="M3343 3493 c-7 -2 -13 -11 -13 -19 0 -10 -12 -14 -37 -14 l-38 0 33
-20 c39 -24 60 -27 42 -5 -10 12 -9 15 6 15 13 0 19 8 20 25 1 14 1 25 0 24 0
0 -7 -3 -13 -6z"/>
<path d="M2380 3469 c0 -5 5 -7 10 -4 6 3 10 8 10 11 0 2 -4 4 -10 4 -5 0 -10
-5 -10 -11z"/>
<path d="M1772 3447 c-34 -36 -26 -52 8 -17 17 17 30 33 30 35 0 12 -18 3 -38
-18z"/>
<path d="M2347 3406 c-9 -22 14 -44 66 -61 90 -30 119 11 37 53 -50 25 -95 29
-103 8z m88 -18 c54 -26 58 -43 9 -35 -39 7 -84 32 -84 47 0 16 26 12 75 -12z"/>
<path d="M2478 3413 c6 -2 18 -2 25 0 6 3 1 5 -13 5 -14 0 -19 -2 -12 -5z"/>
<path d="M2024 3387 c-11 -31 59 -127 92 -127 39 0 35 28 -9 82 -45 55 -73 70
-83 45z m61 -44 c33 -37 44 -63 26 -63 -14 0 -71 69 -71 85 0 22 6 19 45 -22z"/>
<path d="M2309 3385 c-20 -30 27 -153 49 -130 4 3 -2 13 -13 21 -13 10 -21 31
-25 67 -3 28 -8 48 -11 42z"/>
<path d="M2170 3370 c0 -5 5 -10 10 -10 6 0 10 5 10 10 0 6 -4 10 -10 10 -5 0
-10 -4 -10 -10z"/>
<path d="M3500 3365 c0 -2 7 -18 15 -36 10 -25 14 -29 15 -13 0 11 5 25 11 31
7 7 3 12 -15 15 -14 3 -26 4 -26 3z"/>
<path d="M2636 3338 c-9 -12 -15 -40 -15 -63 l1 -40 7 35 c4 19 13 46 20 58
17 32 7 39 -13 10z"/>
<path d="M3589 3336 c30 -32 33 -32 22 -3 -5 12 -17 24 -27 26 -17 3 -16 0 5
-23z"/>
<path d="M4052 3330 c0 -14 2 -19 5 -12 2 6 2 18 0 25 -3 6 -5 1 -5 -13z"/>
<path d="M1761 3278 c-17 -33 -31 -68 -31 -77 0 -9 -12 -22 -27 -29 -30 -13
-78 -71 -78 -93 0 -8 8 -15 17 -17 11 -2 33 18 64 57 26 34 51 61 56 61 5 0
13 11 20 25 6 13 14 22 18 20 11 -7 40 41 40 65 0 31 -15 24 -27 -12 -10 -33
-8 -9 3 37 5 18 2 25 -9 25 -9 0 -29 -26 -46 -62z m23 -33 c-17 -45 -34 -59
-34 -29 0 22 44 98 48 85 2 -6 -4 -31 -14 -56z m-102 -138 c-43 -42 -51 -28
-11 18 20 22 35 32 37 25 3 -7 -9 -26 -26 -43z"/>
<path d="M1964 3324 c7 -19 -53 -84 -78 -84 -23 0 -20 10 17 49 l32 34 -33
-23 c-44 -29 -63 -68 -40 -81 12 -7 15 -19 11 -49 -5 -38 7 -70 28 -70 13 0
21 63 11 90 -8 22 -4 31 34 72 45 49 56 78 28 78 -11 0 -14 -5 -10 -16z m-65
-171 c0 -25 -1 -26 -9 -8 -12 27 -12 35 0 35 6 0 10 -12 9 -27z"/>
<path d="M1539 3317 c-48 -37 -99 -89 -94 -97 9 -15 58 8 103 50 24 22 40 45
37 50 -8 13 -26 12 -46 -3z m6 -33 c-43 -34 -56 -29 -17 7 19 17 37 27 40 24
4 -4 -6 -18 -23 -31z"/>
<path d="M2362 3310 c0 -14 2 -19 5 -12 2 6 2 18 0 25 -3 6 -5 1 -5 -13z"/>
<path d="M4113 3302 c-7 -4 -17 -20 -23 -36 -7 -19 -15 -26 -25 -22 -20 7 -19
-18 1 -49 23 -35 32 -31 54 18 29 62 25 108 -7 89z m-7 -79 c-18 -34 -22 -8
-4 34 8 21 12 24 15 11 2 -9 -3 -29 -11 -45z"/>
<path d="M2420 3275 c0 -8 4 -15 10 -15 5 0 7 7 4 15 -4 8 -8 15 -10 15 -2 0
-4 -7 -4 -15z"/>
<path d="M2030 3250 c-7 -14 -9 -40 -5 -71 6 -40 4 -54 -10 -69 -14 -16 -20
-17 -36 -7 -17 10 -23 8 -39 -13 -21 -27 -50 -110 -43 -122 11 -21 35 -3 58
42 14 28 30 48 35 45 12 -8 100 37 123 63 21 23 15 42 -13 42 -16 0 -19 9 -22
52 -3 59 -27 77 -48 38z m35 -28 c5 -26 -8 -82 -20 -82 -3 0 -5 25 -5 55 0 58
14 74 25 27z m35 -91 c0 -10 -75 -61 -91 -61 -17 0 10 29 46 52 33 20 45 22
45 9z m-155 -102 c-10 -21 -22 -39 -27 -39 -12 0 -10 8 14 57 27 54 38 38 13
-18z"/>
<path d="M2187 3254 c3 -9 -3 -21 -16 -30 -46 -32 -14 -66 42 -44 76 30 127
91 75 89 -13 0 -17 -3 -10 -6 6 -2 12 -9 12 -13 0 -12 -83 -60 -103 -60 -29 0
-19 19 21 39 30 17 33 20 15 21 -13 0 -23 5 -23 10 0 6 -4 10 -10 10 -5 0 -7
-7 -3 -16z"/>
<path d="M3496 3245 c-20 -14 -41 -25 -46 -25 -6 0 -10 -4 -10 -8 0 -5 -42
-29 -92 -54 -51 -26 -106 -60 -122 -77 -27 -28 -28 -32 -13 -48 21 -24 137
-264 137 -285 0 -9 4 -19 8 -22 5 -3 9 -25 9 -50 1 -24 6 -53 12 -63 9 -14 10
-8 6 27 -5 39 -4 42 6 22 13 -24 39 -23 70 4 8 8 18 14 22 14 6 0 46 25 170
109 64 43 67 47 61 76 -3 16 -15 47 -25 67 -25 48 -24 69 1 39 11 -13 20 -18
20 -11 0 6 -13 25 -30 41 -19 20 -37 55 -51 102 -24 83 -67 167 -84 167 -7 0
-29 -11 -49 -25z m59 -40 c9 -20 14 -41 11 -48 -2 -7 -5 -3 -5 8 -1 15 -4 16
-13 7 -18 -18 -28 -15 -29 11 -1 16 -2 18 -6 5 -6 -24 -33 -23 -33 1 0 18 34
51 51 51 4 0 14 -16 24 -35z m-112 -57 c10 2 17 -3 17 -12 0 -9 5 -16 10 -16
6 0 10 5 10 11 0 5 5 7 10 4 6 -4 7 -12 3 -18 -10 -16 -4 -46 14 -74 14 -21
14 -23 -1 -23 -9 0 -16 5 -16 11 0 6 -7 9 -15 5 -10 -3 -14 1 -13 12 3 34 -2
53 -12 47 -6 -4 -8 -11 -4 -16 3 -6 3 -17 -1 -27 -5 -14 -7 -14 -15 -2 -6 8
-10 27 -10 43 0 15 -4 27 -10 27 -5 0 -10 -11 -10 -25 0 -14 -5 -25 -11 -25
-8 0 -9 12 -4 37 9 47 13 55 28 46 7 -4 20 -6 30 -5z m87 -54 c0 -13 5 -24 10
-24 6 0 10 9 10 20 0 23 31 27 49 7 11 -14 39 -87 46 -119 5 -24 -12 -23 -25
2 -6 11 -17 20 -25 20 -20 0 -30 21 -14 31 11 6 11 11 2 20 -10 10 -14 9 -18
-4 -3 -9 -7 -24 -10 -33 -7 -22 -25 -7 -25 22 0 13 -4 24 -10 24 -5 0 -10 16
-10 36 0 21 4 33 10 29 6 -3 10 -17 10 -31z m-177 -3 c3 -14 1 -18 -9 -14 -8
3 -14 14 -14 25 0 23 16 16 23 -11z m-63 -32 c0 -6 7 -9 15 -5 9 3 25 -6 40
-22 20 -21 25 -23 25 -9 0 21 16 22 24 1 3 -9 13 -14 21 -10 8 3 17 1 20 -4 4
-6 14 -10 23 -10 18 0 42 -30 54 -65 4 -15 6 -12 7 13 1 36 25 41 27 6 1 -10
2 -25 3 -32 1 -7 5 -11 10 -8 4 3 6 17 3 32 -4 20 -1 25 9 22 18 -6 24 -47 10
-61 -6 -6 -11 -21 -11 -34 0 -18 -5 -23 -27 -23 -35 0 -90 15 -175 46 -66 25
-67 26 -97 91 -17 36 -28 69 -25 74 8 13 44 11 44 -2z m343 -152 c-4 -22 -4
-22 11 -3 17 22 26 17 44 -26 9 -21 8 -29 -3 -38 -20 -17 -43 -6 -48 22 l-4
23 -8 -22 c-11 -33 -35 -29 -35 5 0 40 22 83 36 71 7 -5 10 -20 7 -32z m-244
-33 c5 -4 -9 -24 -17 -24 -4 0 -18 10 -32 21 l-25 20 35 -7 c19 -3 37 -8 39
-10z m12 -43 c30 -11 85 -25 122 -31 75 -13 76 -20 10 -61 -32 -20 -39 -21
-88 -10 -56 13 -72 26 -99 78 -26 51 -25 52 55 24z m39 -141 c0 -5 -7 -10 -15
-10 -8 0 -15 5 -15 10 0 6 7 10 15 10 8 0 15 -4 15 -10z"/>
<path d="M2457 3228 c4 -13 6 -44 5 -70 -1 -25 2 -49 7 -52 5 -4 8 17 7 51 -4
87 -5 93 -17 93 -6 0 -7 -8 -2 -22z"/>
<path d="M2396 3218 c-9 -12 -16 -34 -15 -48 0 -22 2 -20 16 13 19 46 37 49
28 5 -16 -71 -35 -97 -48 -65 -3 6 -6 2 -6 -11 -1 -32 30 -25 47 11 17 35 21
109 5 114 -6 2 -18 -6 -27 -19z"/>
<path d="M1953 3170 c0 -25 2 -35 4 -22 2 12 2 32 0 45 -2 12 -4 2 -4 -23z"/>
<path d="M1981 3194 c0 -11 3 -14 6 -6 3 7 2 16 -1 19 -3 4 -6 -2 -5 -13z"/>
<path d="M3620 3194 c0 -4 10 -17 23 -29 12 -12 35 -44 51 -69 15 -26 31 -45
33 -42 3 3 -4 21 -16 41 -25 43 -26 49 -6 42 8 -4 17 -2 19 2 8 12 -31 44 -44
36 -6 -4 -22 1 -35 9 -14 9 -25 13 -25 10z"/>
<path d="M3760 3172 c0 -6 9 -29 20 -49 11 -21 20 -31 20 -23 -1 19 -39 89
-40 72z"/>
<path d="M2254 3135 c-17 -13 -39 -36 -48 -50 -15 -22 -15 -26 -2 -31 9 -3 28
4 45 15 l29 21 27 -35 c26 -35 26 -36 7 -53 -11 -9 -23 -28 -26 -42 l-7 -25
18 25 c10 14 30 38 45 53 34 34 34 38 6 74 -13 15 -28 37 -34 47 -15 29 -25
29 -60 1z m12 -42 c-15 -13 -31 -23 -37 -23 -18 0 -9 19 23 45 23 19 34 23 37
14 2 -7 -8 -23 -23 -36z m66 -10 c19 -17 24 -43 9 -43 -6 0 -17 10 -25 22 -27
38 -17 51 16 21z"/>
<path d="M2732 3148 c-18 -5 -32 -14 -32 -22 0 -17 28 -17 34 1 3 7 19 13 36
13 16 0 30 4 30 9 0 11 -22 11 -68 -1z"/>
<path d="M2181 3123 c0 -6 -4 -20 -7 -30 -5 -14 -4 -15 5 -7 7 7 11 20 8 30
-3 11 -5 14 -6 7z"/>
<path d="M1709 3069 c-52 -53 -57 -72 -22 -77 23 -3 93 73 93 101 0 34 -22 26
-71 -24z m51 11 c0 -5 -14 -25 -31 -45 -22 -25 -35 -33 -42 -26 -8 8 -1 22 23
46 34 35 50 43 50 25z"/>
<path d="M2873 3085 c0 -10 10 -15 31 -15 28 0 29 1 10 15 -25 19 -41 19 -41
0z"/>
<path d="M1856 3068 c-35 -55 -50 -98 -38 -110 16 -16 33 0 61 57 22 44 23 75
2 75 -6 0 -17 -10 -25 -22z m4 -58 c-18 -33 -23 -16 -8 26 10 30 14 33 16 16
2 -11 -2 -31 -8 -42z"/>
<path d="M2478 3072 c-16 -22 -62 -28 -54 -6 3 8 1 14 -3 14 -8 0 -21 -23 -21
-36 0 -2 11 -4 24 -4 14 0 28 -4 31 -10 10 -17 21 -11 22 11 2 26 6 30 31 32
11 0 18 5 16 9 -9 14 -32 9 -46 -10z"/>
<path d="M2779 3058 c-6 -13 -55 -88 -108 -166 -79 -118 -97 -140 -101 -122
-5 22 -6 22 -20 5 -12 -14 -12 -19 -2 -22 16 -6 15 -35 -2 -59 -13 -17 -15 -9
-14 71 1 50 -2 109 -7 133 -8 44 5 58 24 25 9 -15 10 -16 11 -2 0 8 -11 26
-24 38 -21 20 -31 22 -68 16 -24 -4 -63 -13 -87 -21 -48 -16 -61 -13 -41 11 7
8 9 15 5 15 -21 0 -31 -35 -24 -79 4 -25 8 -68 8 -94 1 -62 -14 -58 -54 12
-16 29 -31 47 -33 42 -6 -17 -20 -13 -32 10 -10 17 -6 26 24 59 49 55 59 75
42 90 -12 9 -21 4 -46 -23 -17 -19 -37 -43 -44 -53 -13 -17 -15 -17 -41 4 -15
12 -32 22 -37 22 -11 0 -158 -118 -158 -127 0 -3 39 -44 88 -92 48 -47 102
-105 121 -129 l33 -44 32 30 c17 16 44 39 61 51 28 21 30 21 36 4 4 -10 8 -33
8 -50 1 -39 11 -41 81 -13 61 24 71 25 64 5 -4 -10 8 -29 32 -51 53 -49 75
-57 94 -33 15 19 17 19 50 3 19 -9 43 -24 53 -32 9 -8 20 -13 23 -9 8 8 -74
58 -100 61 -26 3 -116 74 -116 92 0 18 27 25 55 14 14 -5 44 -29 68 -53 70
-72 333 -237 356 -223 4 3 22 35 40 71 18 36 34 65 36 65 4 0 -22 -79 -40
-122 -3 -9 -16 -19 -28 -22 -12 -3 -19 -8 -16 -11 12 -12 67 17 73 38 3 12 12
31 21 42 16 19 16 17 11 -29 -4 -27 -8 -51 -10 -53 -2 -2 -21 -6 -42 -9 -55
-7 -55 -14 0 -14 26 0 57 -5 69 -12 20 -10 21 -10 8 6 -12 14 -12 19 2 34 9
10 26 39 37 65 20 45 20 50 6 72 -9 13 -16 27 -16 29 0 6 84 56 93 56 4 0 7
-9 7 -21 0 -15 5 -20 22 -17 16 2 27 16 40 53 21 58 13 90 -27 105 -32 12 -37
56 -5 46 11 -3 29 -9 40 -12 12 -4 20 -2 20 5 0 5 -6 8 -14 5 -16 -6 -74 41
-64 51 4 4 22 -3 40 -16 l33 -23 -22 25 c-13 14 -23 34 -23 45 0 27 -27 64
-47 64 -12 0 -9 -7 11 -25 27 -25 28 -49 2 -39 -7 3 -16 -2 -20 -12 -5 -14
-11 -12 -36 15 -32 33 -42 91 -16 91 40 0 21 63 -30 97 -24 16 -25 17 -8 25
12 5 5 5 -16 2 -44 -8 -53 -22 -35 -51 8 -12 15 -29 15 -38 0 -8 7 -15 15 -15
16 0 36 -39 34 -68 0 -11 -5 -6 -13 12 -10 23 -14 25 -19 12 -6 -15 -9 -15
-36 -1 -16 8 -32 24 -36 34 -4 12 -12 18 -21 14 -8 -3 -33 13 -62 41 -47 46
-82 65 -46 25 l19 -22 -42 22 c-23 11 -54 32 -69 46 -15 14 -28 25 -30 25 -2
0 -9 -10 -15 -22z m51 -38 c0 -5 -4 -10 -10 -10 -5 0 -10 5 -10 10 0 6 5 10
10 10 6 0 10 -4 10 -10z m341 -51 c6 -11 8 -23 6 -26 -8 -8 -77 50 -77 65 0
18 56 -13 71 -39z m-400 12 c11 19 22 5 15 -19 -11 -35 -33 -34 -33 1 0 18 2
26 5 18 4 -11 6 -11 13 0z m-521 -9 c0 -12 -39 -46 -45 -41 -6 7 24 49 36 49
5 0 9 -4 9 -8z m-103 -68 c21 -26 56 -64 78 -85 43 -42 44 -50 3 -42 -19 4
-33 17 -49 47 -11 22 -28 48 -38 56 -17 16 -81 25 -81 11 0 -8 30 -24 63 -35
9 -3 17 -10 17 -16 0 -7 -9 -9 -22 -5 -19 6 -21 5 -10 -6 17 -18 15 -27 -5
-32 -14 -4 -14 -5 3 -6 14 -1 21 -7 20 -18 -1 -14 6 -18 32 -17 17 1 32 -2 32
-6 0 -5 14 -11 31 -15 23 -5 34 -3 44 11 11 15 15 16 29 5 25 -21 13 -50 -40
-92 l-49 -40 -57 63 c-66 72 -59 65 -115 114 -24 20 -43 39 -43 43 0 9 101
111 111 111 4 0 25 -21 46 -46z m313 42 c0 -3 -4 -8 -10 -11 -5 -3 -10 -1 -10
4 0 6 5 11 10 11 6 0 10 -2 10 -4z m42 -52 c-6 -75 -22 -79 -22 -5 0 46 3 62
13 58 8 -3 11 -20 9 -53z m487 14 c34 -23 61 -45 61 -50 0 -4 -12 -8 -27 -8
-16 0 -39 -3 -53 -6 -14 -3 -21 -2 -15 3 20 16 37 43 28 43 -5 0 -19 -9 -31
-21 -23 -21 -51 -17 -33 5 7 9 1 17 -22 31 -25 15 -28 20 -14 23 9 2 17 8 17
13 0 19 30 8 89 -33z m-605 16 c4 -9 13 -14 21 -10 11 4 15 -2 17 -22 0 -15 2
-31 3 -37 2 -5 3 -19 4 -30 2 -20 2 -20 16 -1 20 26 31 12 17 -20 -9 -19 -9
-24 -1 -18 9 5 10 -2 6 -27 -6 -30 -5 -32 7 -16 9 12 16 14 21 7 4 -6 2 -17
-4 -23 -5 -7 -8 -22 -5 -33 4 -16 -6 -25 -52 -48 -54 -26 -59 -27 -71 -10 -7
9 -10 20 -8 24 2 4 5 68 6 143 2 127 8 160 23 121z m451 -50 c10 4 13 -5 11
-32 -1 -30 -6 -38 -26 -40 -18 -3 -20 -6 -9 -14 10 -6 3 -7 -20 -3 -23 5 -31
4 -27 -4 5 -7 -2 -11 -18 -11 -14 0 -26 -4 -26 -9 0 -5 -9 -7 -20 -4 -12 3
-31 -5 -51 -21 -30 -26 -49 -33 -49 -18 0 4 16 31 35 60 20 29 33 58 29 64 -4
6 -3 8 3 5 5 -3 20 7 32 23 15 20 30 30 49 30 15 0 34 5 42 10 11 7 17 3 24
-16 5 -15 13 -23 21 -20z m35 16 c0 -5 -2 -10 -4 -10 -3 0 -8 5 -11 10 -3 6
-1 10 4 10 6 0 11 -4 11 -10z m30 -10 c0 -5 -4 -10 -10 -10 -5 0 -10 5 -10 10
0 6 5 10 10 10 6 0 10 -4 10 -10z m-443 -22 c-3 -8 -6 -5 -6 6 -1 11 2 17 5
13 3 -3 4 -12 1 -19z m409 -25 c-10 -10 -19 5 -10 18 6 11 8 11 12 0 2 -7 1
-15 -2 -18z m270 -14 c19 -11 34 -22 34 -23 0 -2 -14 -33 -30 -70 -27 -60 -33
-66 -60 -66 -35 0 -37 6 -12 33 16 19 16 20 0 14 -26 -9 -22 3 12 43 16 19 26
37 23 40 -3 3 -8 -1 -10 -7 -3 -7 -11 -13 -19 -13 -8 0 -13 -3 -12 -7 2 -5 -5
-18 -14 -31 -12 -18 -24 -23 -49 -20 -38 3 -51 27 -20 35 12 3 21 13 21 22 0
10 11 24 25 31 14 7 25 19 25 27 0 20 48 16 86 -8z m-979 -25 c-9 -9 -28 6
-21 18 4 6 10 6 17 -1 6 -6 8 -13 4 -17z m343 7 c0 -6 -4 -13 -10 -16 -5 -3
-10 1 -10 9 0 9 5 16 10 16 6 0 10 -4 10 -9z m490 -11 c0 -6 -6 -13 -14 -16
-8 -3 -16 -14 -19 -25 -4 -16 -11 -19 -34 -13 -27 7 -28 7 -10 -13 9 -11 35
-25 57 -32 38 -11 57 -27 47 -38 -4 -3 -20 -1 -36 5 -19 7 -31 7 -31 1 0 -5 5
-9 12 -9 23 0 -3 -14 -30 -15 -15 -1 -38 -4 -52 -7 -14 -4 -62 -12 -108 -18
l-82 -12 -55 33 c-30 18 -55 39 -55 45 0 32 334 121 351 93 5 -8 13 -5 25 10
20 23 34 27 34 11z m249 -52 c0 -38 -1 -40 -10 -19 -8 22 -4 61 7 61 2 0 4
-19 3 -42z m-38 -6 c-7 -12 -3 -21 15 -35 39 -31 31 -54 -31 -83 -30 -14 -57
-34 -60 -44 -7 -23 -45 -57 -45 -41 0 6 17 41 37 77 29 50 42 64 56 60 14 -3
18 1 16 22 -4 48 1 73 11 67 6 -4 7 -12 1 -23z m-60 -49 c-12 -20 -14 -14 -5
12 4 9 9 14 11 11 3 -2 0 -13 -6 -23z m154 -25 c6 -31 -8 -91 -23 -96 -8 -2
-12 12 -12 51 0 29 3 57 7 60 12 13 23 7 28 -15z m-225 -48 c0 -5 -6 -10 -14
-10 -8 0 -12 -8 -9 -22 4 -24 -30 -88 -47 -88 -16 0 -12 12 12 37 17 18 19 26
10 35 -15 15 -42 -12 -57 -57 -10 -27 -15 -30 -50 -30 -22 0 -43 -4 -47 -10
-5 -6 -23 -1 -50 14 -84 47 -150 113 -75 75 30 -16 31 -16 18 0 -8 9 -11 19
-8 22 10 10 161 26 194 20 18 -2 35 0 39 5 3 6 17 8 29 5 13 -3 27 -2 30 4 8
13 25 13 25 0z m160 -8 c0 -8 -71 -52 -84 -52 -16 0 -3 20 27 39 33 22 57 27
57 13z m-677 -30 c26 -27 35 -52 20 -52 -9 1 -52 38 -72 63 -24 30 22 21 52
-11z m562 -72 c-20 -23 -29 -21 -19 4 3 9 13 16 22 16 13 0 12 -3 -3 -20z m24
-66 c-20 -52 -38 -56 -29 -6 9 50 19 67 33 53 7 -7 6 -21 -4 -47z m-161 9 c-9
-10 -17 -23 -19 -30 -5 -14 -69 10 -69 27 0 13 16 13 40 0 13 -7 19 -6 24 5 3
8 13 15 22 15 15 0 16 -2 2 -17z"/>
<path d="M3020 2750 c-8 -5 -11 -12 -7 -16 4 -4 13 -2 19 4 15 15 7 24 -12 12z"/>
<path d="M4203 3064 c-7 -20 4 -99 18 -125 9 -17 13 -18 26 -7 12 9 14 24 9
64 -3 29 -9 59 -12 68 -8 20 -33 21 -41 0z m36 -67 c0 -38 -3 -47 -9 -32 -12
29 -12 98 0 90 6 -3 10 -30 9 -58z"/>
<path d="M3804 3052 c-10 -6 -34 -116 -34 -155 0 -10 8 -17 19 -17 22 0 37 36
47 109 6 48 -9 78 -32 63z m12 -84 c-4 -29 -11 -60 -17 -68 -11 -15 -3 87 8
117 11 28 15 3 9 -49z"/>
<path d="M2597 3039 c-15 -9 -16 -19 -11 -62 3 -29 13 -59 21 -67 13 -13 16
-13 29 4 16 23 19 89 4 117 -12 22 -18 23 -43 8z m33 -65 c0 -24 -4 -44 -9
-44 -10 0 -24 77 -16 91 13 20 25 -4 25 -47z"/>
<path d="M2670 3040 c-13 -8 -12 -10 3 -10 9 0 17 5 17 10 0 12 -1 12 -20 0z"/>
<path d="M2140 3032 c0 -5 -9 -18 -20 -30 -12 -12 -17 -22 -13 -22 8 0 32 25
47 48 4 7 2 12 -3 12 -6 0 -11 -4 -11 -8z"/>
<path d="M3046 2986 c16 -20 31 -31 32 -26 5 13 -15 38 -41 52 -15 8 -13 1 9
-26z"/>
<path d="M3190 2994 c0 -11 42 -65 47 -60 6 6 -29 66 -39 66 -4 0 -8 -3 -8 -6z"/>
<path d="M2022 2978 c-14 -14 -16 -28 -3 -28 5 0 11 9 14 20 6 23 5 24 -11 8z"/>
<path d="M1818 2931 c46 -12 49 -19 17 -31 -33 -12 -65 -5 -65 16 0 18 -14 18
-29 0 -26 -31 54 -47 119 -24 27 9 35 9 38 -1 3 -8 9 -5 19 9 8 12 13 23 12
25 -2 2 -35 6 -74 9 -48 4 -60 3 -37 -3z"/>
<path d="M2572 2910 c0 -14 2 -19 5 -12 2 6 2 18 0 25 -3 6 -5 1 -5 -13z"/>
<path d="M2550 2870 c0 -14 5 -32 10 -40 8 -12 10 -10 10 10 0 14 -5 32 -10
40 -8 12 -10 10 -10 -10z"/>
<path d="M2290 2850 c0 -5 5 -10 11 -10 5 0 7 5 4 10 -3 6 -8 10 -11 10 -2 0
-4 -4 -4 -10z"/>
<path d="M1856 2811 c10 -10 21 -14 23 -8 4 10 -17 27 -33 27 -5 0 -1 -8 10
-19z"/>
<path d="M3783 2810 c-62 -14 -89 -61 -35 -59 47 1 97 24 97 45 0 22 -16 25
-62 14z m47 -19 c0 -5 -11 -12 -24 -15 -13 -3 -31 -9 -40 -12 -10 -4 -16 -1
-16 9 0 9 8 18 18 20 31 8 62 7 62 -2z"/>
<path d="M1910 2790 c-11 -21 -4 -112 12 -142 12 -25 35 -22 41 4 6 20 1 85
-9 136 -5 27 -30 29 -44 2z m42 -72 c5 -47 -6 -87 -16 -58 -20 59 -25 95 -14
107 16 19 25 5 30 -49z"/>
<path d="M1810 2780 c0 -5 5 -10 11 -10 5 0 7 5 4 10 -3 6 -8 10 -11 10 -2 0
-4 -4 -4 -10z"/>
<path d="M3865 2780 c-3 -5 1 -10 9 -10 8 0 18 5 21 10 3 6 -1 10 -9 10 -8 0
-18 -4 -21 -10z"/>
<path d="M1835 2723 c3 -16 11 -32 17 -38 7 -7 9 -3 5 12 -2 12 0 24 6 26 15
5 -1 27 -20 27 -12 0 -14 -6 -8 -27z"/>
<path d="M3894 2732 c5 -15 0 -25 -21 -39 -54 -38 -54 -38 -47 6 5 34 4 41 -9
41 -20 0 -33 -23 -42 -77 -8 -48 -23 -64 -37 -39 -13 23 -49 20 -89 -7 -45
-30 -45 -53 -1 -49 38 4 41 -9 12 -56 -25 -41 -25 -54 1 -154 24 -95 51 -153
78 -168 11 -5 26 -17 35 -25 13 -14 25 -9 108 47 79 53 94 68 96 93 5 41 27
118 52 185 l21 55 -51 54 c-52 55 -84 104 -84 130 -1 8 -7 16 -15 19 -9 3 -11
-1 -7 -16z m26 -77 c7 -8 9 -15 5 -15 -4 0 -3 -6 3 -12 6 -7 9 -30 8 -50 -1
-29 1 -34 12 -25 7 6 11 20 8 31 -4 19 -3 18 15 -4 l21 -24 -46 -44 c-25 -24
-46 -49 -46 -57 0 -8 -6 -12 -14 -9 -8 3 -19 -3 -26 -15 -6 -12 -14 -21 -19
-21 -4 0 -31 33 -59 74 l-52 74 25 16 c13 9 30 16 38 16 7 0 24 11 37 25 13
14 26 23 28 20 3 -3 11 4 19 15 17 24 26 25 43 5z m-200 -34 c0 -9 -61 -41
-79 -41 -24 0 -9 19 27 33 44 19 52 20 52 8z m290 -91 c0 -5 -4 -10 -9 -10 -6
0 -13 5 -16 10 -3 6 1 10 9 10 9 0 16 -4 16 -10z m-261 -46 c26 -32 28 -39 15
-51 -20 -20 -17 -40 7 -53 25 -14 53 -5 43 12 -4 7 2 5 14 -5 l21 -19 -21 -56
c-11 -32 -22 -63 -24 -71 -7 -21 -50 28 -75 83 -23 53 -39 196 -21 196 6 0 24
-16 41 -36z m-70 -66 l-1 -53 -8 40 c-7 36 -4 65 6 65 2 0 3 -24 3 -52z m301
38 c0 -2 -7 -7 -16 -10 -8 -3 -12 -2 -9 4 6 10 25 14 25 6z m-40 -46 c0 -5 -7
-10 -16 -10 -8 0 -12 5 -9 10 3 6 10 10 16 10 5 0 9 -4 9 -10z m13 -35 c-3 -9
-8 -14 -10 -11 -3 3 -2 9 2 15 9 16 15 13 8 -4z m-235 -82 c11 -29 17 -53 13
-53 -9 0 -51 91 -51 111 0 21 15 -2 38 -58z m182 22 c-6 -8 -9 -19 -5 -25 5
-7 12 -5 21 7 7 10 14 14 14 9 1 -24 -94 -106 -107 -92 -3 2 3 19 13 38 18 33
20 39 22 72 1 12 7 16 17 13 8 -4 18 -1 22 5 5 9 8 9 11 0 2 -7 -1 -19 -8 -27z"/>
<path d="M3873 2605 c-3 -10 0 -21 8 -25 7 -5 10 -13 5 -17 -5 -4 -11 -2 -13
5 -4 11 -33 18 -33 7 0 -3 9 -14 20 -25 19 -19 22 -19 36 -5 13 12 13 19 4 30
-6 8 -9 19 -6 24 4 5 2 12 -4 16 -6 3 -13 -1 -17 -10z"/>
<path d="M3890 2510 c0 -5 5 -10 10 -10 6 0 10 5 10 10 0 6 -4 10 -10 10 -5 0
-10 -4 -10 -10z"/>
<path d="M3765 2320 c-15 -16 -16 -23 -6 -33 10 -9 15 -8 27 7 29 40 12 62
-21 26z"/>
<path d="M3622 2719 c-15 -5 -22 -15 -20 -26 3 -14 14 -18 53 -17 28 0 62 3
78 7 30 8 36 31 11 41 -23 9 -95 6 -122 -5z m85 -5 c13 -4 20 -10 17 -15 -7
-12 -104 -12 -104 0 0 16 50 25 87 15z"/>
<path d="M4003 2723 c-25 -9 -13 -19 18 -15 22 3 27 7 18 13 -15 10 -18 10
-36 2z"/>
<path d="M3543 2696 c-15 -13 -26 -27 -23 -29 3 -3 18 8 34 24 35 35 28 38
-11 5z"/>
<path d="M2006 2648 c-9 -12 -16 -32 -16 -43 1 -15 4 -12 14 11 8 18 22 37 33
43 16 9 16 10 1 11 -9 0 -24 -10 -32 -22z"/>
<path d="M3331 2648 c-1 -23 9 -48 21 -48 7 0 7 4 0 13 -5 6 -12 21 -15 32 -3
15 -5 16 -6 3z"/>
<path d="M2095 2640 c3 -5 14 -10 23 -10 15 0 15 2 2 10 -20 13 -33 13 -25 0z"/>
<path d="M3535 2619 c-4 -5 -27 -7 -53 -3 -33 4 -53 1 -66 -9 -19 -14 -19 -15
5 -48 13 -19 24 -38 24 -43 0 -14 22 -18 30 -6 4 6 -1 20 -11 31 -16 18 -16
19 9 19 14 0 32 3 41 6 13 5 16 -1 16 -33 0 -22 7 -48 15 -59 15 -19 15 -19
30 0 17 22 20 82 6 119 -10 27 -37 42 -46 26z m-46 -15 c17 -4 31 -10 31 -14
0 -14 -48 -20 -76 -9 -23 8 -25 12 -14 19 18 12 19 12 59 4z m81 -65 c0 -27
-4 -49 -10 -49 -5 0 -10 25 -10 56 0 34 4 53 10 49 6 -3 10 -28 10 -56z"/>
<path d="M2091 2581 c-11 -7 -9 -10 10 -13 l24 -3 -26 -17 c-32 -23 -89 -35
-89 -19 0 6 15 17 33 25 24 11 27 15 12 15 -26 1 -65 -26 -65 -45 0 -28 88
-12 133 24 35 30 7 58 -32 33z"/>
<path d="M3350 2555 c0 -16 16 -20 24 -6 3 5 -1 11 -9 15 -9 3 -15 0 -15 -9z"/>
<path d="M1860 2553 c-19 -3 -42 -10 -50 -17 -12 -10 -213 -118 -252 -134 -4
-2 -5 15 -2 37 3 23 1 41 -3 41 -4 -1 -23 -14 -41 -29 -30 -25 -32 -32 -22
-50 6 -12 8 -31 5 -41 -4 -12 1 -31 13 -48 15 -22 18 -39 15 -87 -4 -48 -2
-64 11 -74 10 -8 16 -9 16 -3 0 6 -4 14 -10 17 -13 8 -13 85 0 85 5 0 17 -15
26 -32 9 -18 27 -47 40 -63 15 -19 25 -49 28 -84 2 -30 10 -59 15 -64 6 -6 11
-19 11 -29 0 -9 9 -22 19 -28 30 -16 38 -11 15 8 -27 22 -39 63 -16 54 12 -4
11 2 -6 25 -37 52 -24 61 18 13 42 -48 50 -66 24 -56 -9 3 -12 2 -9 -5 4 -6
13 -8 20 -5 7 2 18 -7 24 -21 10 -21 16 -24 39 -18 15 3 50 21 77 39 28 18 61
39 74 46 13 7 49 32 80 56 31 24 74 49 95 56 61 20 64 35 20 103 -22 33 -48
78 -59 99 -11 21 -33 53 -48 70 -16 16 -43 51 -59 76 -31 45 -57 71 -67 68 -3
0 -22 -3 -41 -5z m54 -42 c17 -7 50 -80 41 -90 -3 -2 -5 0 -5 6 0 14 -37 55
-46 51 -3 -2 -13 7 -21 20 -17 24 -7 28 31 13z m-84 -15 c0 -2 -7 -9 -15 -16
-13 -11 -14 -10 -9 4 5 14 24 23 24 12z m32 -84 c-8 -22 -23 9 -15 33 5 17 4
18 -11 6 -14 -11 -16 -11 -16 1 0 8 6 20 12 26 10 10 15 6 24 -20 6 -18 9 -39
6 -46z m-340 -18 c-9 -15 -10 -15 -17 5 -4 13 -1 28 7 38 12 15 13 14 16 -5 2
-12 -1 -29 -6 -38z m180 -97 c-27 -61 -54 -113 -60 -115 -5 -1 -26 20 -45 49
-35 52 -35 53 -21 97 16 54 39 79 78 86 15 3 38 11 50 19 19 13 22 12 34 -5
12 -17 8 -32 -36 -131z m104 117 c-3 -8 -2 -12 4 -9 5 3 14 -5 21 -17 7 -13
16 -26 21 -29 5 -3 6 -14 2 -24 -7 -17 -8 -17 -21 1 -21 29 -15 2 8 -31 15
-23 19 -25 14 -8 -3 12 -2 24 3 27 17 10 11 -60 -12 -139 -13 -44 -29 -101
-36 -127 -20 -76 -30 -76 -88 2 -29 38 -52 78 -52 89 0 20 29 95 54 141 7 14
19 41 25 61 10 30 16 36 34 33 12 -2 16 -2 10 2 -24 11 -14 37 16 43 2 1 0 -6
-3 -15z m94 -8 c0 -3 -4 -8 -10 -11 -5 -3 -10 -1 -10 4 0 6 5 11 10 11 6 0 10
-2 10 -4z m-330 -49 c0 -7 -6 -21 -13 -31 -12 -17 -14 -17 -27 -1 -12 15 -12
19 5 31 24 18 35 18 35 1z m454 -22 c-7 -17 16 -43 32 -38 13 4 74 -65 74 -84
0 -7 -7 -13 -15 -13 -8 0 -15 4 -15 9 0 6 -12 16 -26 23 -26 13 -63 69 -79
117 -6 21 -5 22 14 12 12 -7 18 -17 15 -26z m-74 -38 c0 -7 -9 -20 -20 -30
-24 -20 -26 -39 -3 -30 13 5 15 2 10 -17 -5 -21 -3 -20 27 9 17 17 35 31 39
31 16 0 5 -26 -25 -59 -30 -32 -31 -33 -7 -18 26 15 27 15 22 -3 -3 -11 -11
-25 -19 -31 -19 -15 -18 -30 1 -23 23 9 18 -14 -8 -39 -33 -30 -147 -100 -154
-94 -3 3 13 53 36 112 23 58 41 117 41 130 0 13 6 28 13 32 8 4 16 16 20 26 7
20 27 23 27 4z m40 -12 c0 -8 -34 -45 -42 -45 -15 0 -8 29 10 39 19 11 32 14
32 6z m55 -116 c8 -23 1 -34 -14 -24 -13 8 -15 45 -2 45 5 0 13 -9 16 -21z
m68 12 c4 -1 7 -6 7 -12 0 -14 -52 -7 -58 9 -2 8 4 11 20 8 12 -3 26 -5 31 -5z"/>
<path d="M2377 2545 c-20 -10 -56 -14 -125 -13 l-97 2 -2 -64 c-4 -84 -12
-130 -22 -127 -16 4 -13 -13 10 -60 l22 -46 70 6 c39 3 74 10 79 15 5 5 12 50
15 100 3 50 9 94 12 99 3 5 28 24 54 42 46 31 56 53 26 59 -8 1 -27 -4 -42
-13z m33 -14 c0 -13 -49 -43 -60 -36 -16 10 -12 21 13 33 28 13 47 15 47 3z
m-150 -28 c0 -3 -7 -15 -17 -25 -9 -10 -12 -18 -6 -18 6 0 10 -19 10 -43 0
-24 3 -60 7 -79 5 -30 10 -35 26 -31 30 8 25 -26 -6 -37 -22 -9 -83 -14 -85
-7 -7 20 -14 217 -7 230 6 11 20 17 43 17 19 0 35 -3 35 -7z"/>
<path d="M3327 2503 c-29 -3 -40 -11 -52 -33 -13 -24 -13 -30 0 -40 11 -9 25
-8 62 4 26 9 57 24 68 32 20 15 20 15 1 30 -11 8 -25 13 -30 12 -6 -1 -28 -3
-49 -5z m61 -25 c-5 -15 -85 -44 -95 -34 -4 4 3 16 16 27 26 21 85 27 79 7z"/>
<path d="M2468 2482 c-71 -47 -86 -112 -18 -77 35 18 34 21 14 -30 -3 -8 26 6
65 32 39 25 69 48 67 50 -6 6 -47 -16 -75 -41 -25 -22 -25 -20 -2 26 15 29 9
58 -11 58 -7 0 -25 -8 -40 -18z m37 -11 c7 -12 -51 -54 -68 -48 -7 2 -1 14 17
30 31 29 41 32 51 18z"/>
<path d="M2702 2448 c5 -15 28 -23 28 -10 0 5 -7 13 -16 16 -10 4 -14 1 -12
-6z"/>
<path d="M2110 2440 c0 -5 5 -10 11 -10 5 0 7 5 4 10 -3 6 -8 10 -11 10 -2 0
-4 -4 -4 -10z"/>
<path d="M2344 2428 c3 -13 6 -31 6 -40 0 -10 5 -18 10 -18 11 0 13 39 4 64
-9 25 -27 19 -20 -6z"/>
<path d="M3397 2419 c-48 -39 -64 -67 -43 -75 20 -8 102 44 115 72 20 45 -20
46 -72 3z m51 -1 c-6 -17 -70 -60 -77 -52 -7 7 58 64 72 64 5 0 7 -6 5 -12z"/>
<path d="M3578 2398 c-10 -29 -24 -47 -41 -56 -15 -7 -27 -19 -27 -26 0 -16
57 -62 95 -76 l27 -10 -32 -41 c-30 -37 -34 -39 -50 -24 -9 8 -26 31 -36 50
-10 19 -24 35 -31 35 -25 0 -24 -22 4 -68 16 -26 33 -56 39 -67 16 -28 49 -26
48 3 0 16 5 22 22 22 14 0 34 14 53 39 17 21 31 41 31 44 0 3 -12 19 -26 34
-51 54 -56 68 -45 110 15 52 14 73 -3 73 -8 0 -21 -19 -28 -42z m22 -16 c0 -5
-7 -17 -16 -28 -14 -17 -15 -17 -10 -1 3 10 6 23 6 28 0 5 5 9 10 9 6 0 10 -4
10 -8z m6 -97 c15 -14 24 -28 21 -31 -7 -8 -97 43 -97 55 0 28 31 18 76 -24z
m24 -100 c-27 -29 -37 -27 -20 4 6 12 18 21 27 21 13 0 12 -5 -7 -25z m-70
-67 c0 -5 -5 -8 -10 -8 -9 0 -30 41 -30 58 1 9 39 -41 40 -50z"/>
<path d="M2070 2410 c0 -5 4 -10 9 -10 5 0 13 -9 16 -21 4 -11 9 -19 11 -16 8
7 -15 57 -26 57 -5 0 -10 -4 -10 -10z"/>
<path d="M3488 2398 c-21 -32 -29 -70 -15 -65 7 2 13 13 13 25 1 12 7 29 14
37 7 9 11 18 8 21 -3 2 -12 -6 -20 -18z"/>
<path d="M3184 2396 c-6 -17 2 -36 17 -36 12 0 12 37 -1 45 -6 3 -13 -1 -16
-9z"/>
<path d="M2755 2390 c-11 -18 15 -39 71 -57 40 -12 57 -14 65 -6 16 16 2 32
-45 54 -46 21 -82 24 -91 9z m82 -22 c18 -7 33 -16 33 -20 0 -12 -16 -10 -55
6 -58 25 -40 36 22 14z"/>
<path d="M3265 2380 c3 -5 16 -10 28 -9 21 0 21 1 2 9 -28 12 -37 12 -30 0z"/>
<path d="M4022 2326 c-15 -33 -11 -44 7 -22 7 8 11 23 9 32 -2 14 -6 11 -16
-10z"/>
<path d="M3308 2333 c7 -3 16 -2 19 1 4 3 -2 6 -13 5 -11 0 -14 -3 -6 -6z"/>
<path d="M3430 2305 c-7 -9 -11 -18 -8 -20 3 -3 11 1 18 10 7 9 11 18 8 20 -3
3 -11 -1 -18 -10z"/>
<path d="M3911 2211 c-11 -7 -9 -11 8 -20 27 -15 46 -5 27 15 -17 16 -17 16
-35 5z"/>
<path d="M1440 2184 c0 -8 5 -12 10 -9 6 3 10 10 10 16 0 5 -4 9 -10 9 -5 0
-10 -7 -10 -16z"/>
<path d="M3667 2132 c-14 -16 -12 -17 31 -18 26 -1 38 0 27 3 -11 3 -25 11
-31 19 -9 12 -13 11 -27 -4z"/>
<path d="M1546 2016 c2 -128 1 -125 20 -97 12 17 13 26 5 34 -13 13 -15 106
-2 126 16 24 22 -6 15 -69 -6 -53 -5 -60 10 -54 10 4 18 0 22 -10 3 -9 10 -16
15 -16 5 0 1 12 -8 27 -10 15 -20 54 -23 87 -4 53 -8 60 -30 66 l-25 7 1 -101z"/>
<path d="M3786 2104 c-18 -18 -21 -34 -6 -34 6 0 10 7 10 15 0 16 8 18 54 15
18 -1 26 2 22 9 -11 16 -62 13 -80 -5z"/>
<path d="M2134 2085 c3 -8 -3 -19 -12 -24 -9 -6 -13 -11 -9 -11 5 0 20 8 33
19 23 18 23 19 3 24 -15 4 -19 2 -15 -8z"/>
<path d="M3618 2023 c7 -3 16 -2 19 1 4 3 -2 6 -13 5 -11 0 -14 -3 -6 -6z"/>
<path d="M1985 2000 c-3 -5 -20 -10 -36 -10 -24 0 -49 -10 -88 -36 -1 -2 0 -7
3 -12 9 -16 44 -2 42 16 0 9 7 18 17 20 10 2 17 -3 17 -12 0 -9 -4 -16 -10
-16 -5 0 -10 -7 -10 -15 0 -24 17 -18 24 8 3 13 17 29 31 35 14 6 25 16 25 22
0 13 -7 13 -15 0z"/>
<path d="M3923 1983 c-18 -7 -16 -38 9 -110 18 -54 24 -64 42 -61 18 3 21 9
19 44 -1 40 -39 135 -52 133 -3 0 -12 -3 -18 -6z m41 -65 c21 -58 23 -80 10
-85 -13 -4 -56 111 -46 121 12 13 21 4 36 -36z"/>
<path d="M1800 1901 c0 -6 4 -13 10 -16 6 -3 7 1 4 9 -7 18 -14 21 -14 7z"/>
<path d="M2212 1890 c-9 -14 -8 -30 2 -70 15 -59 20 -65 41 -57 27 11 15 121
-14 137 -12 6 -20 3 -29 -10z m40 -102 c-7 -7 -13 3 -20 33 -12 60 -2 73 16
20 10 -29 11 -46 4 -53z"/>
<path d="M1810 1860 c0 -5 10 -10 23 -10 18 0 19 2 7 10 -19 13 -30 13 -30 0z"/>
<path d="M2700 1765 c-7 -8 -8 -15 -2 -15 5 0 15 7 22 15 7 8 8 15 2 15 -5 0
-15 -7 -22 -15z"/>
<path d="M3410 1720 c-6 -11 -8 -30 -5 -40 5 -17 1 -20 -27 -21 l-33 -2 35 -6
c30 -5 36 -11 45 -45 13 -47 40 -69 55 -46 14 22 11 68 -9 125 -19 54 -43 68
-61 35z m44 -38 c19 -38 26 -85 16 -102 -11 -18 -36 36 -46 101 -8 47 6 48 30
1z"/>
<path d="M2646 1704 c-4 -10 -1 -14 6 -12 15 5 23 28 10 28 -5 0 -13 -7 -16
-16z"/>
<path d="M2517 1682 c-32 -15 -55 -30 -51 -34 4 -4 31 6 60 21 29 16 63 31 76
34 22 4 22 4 -2 5 -14 0 -51 -12 -83 -26z"/>
<path d="M2236 1661 c-8 -13 37 -22 49 -10 7 7 4 8 -7 4 -11 -4 -18 -2 -18 4
0 13 -17 15 -24 2z"/>
<path d="M2530 1628 c-33 -22 -80 -81 -80 -100 0 -20 33 -19 60 1 16 11 39 21
51 21 15 0 19 4 15 16 -3 8 -1 25 5 36 8 16 8 24 -3 34 -12 13 -19 11 -48 -8z
m30 -20 c0 -16 -51 -68 -67 -68 -16 0 -16 3 -2 34 15 33 69 60 69 34z"/>
<path d="M2268 1615 c-62 -41 -82 -102 -30 -90 25 5 30 1 50 -40 24 -50 44
-64 67 -45 18 15 13 40 -21 93 l-25 38 21 26 c11 14 20 30 20 34 0 17 -45 8
-82 -16z m52 -4 c0 -12 -79 -75 -86 -68 -10 9 11 37 42 58 32 21 44 24 44 10z
m13 -107 c20 -42 21 -54 4 -54 -16 0 -47 52 -47 79 0 30 24 17 43 -25z"/>
<path d="M3547 1622 c-18 -20 -22 -32 -9 -32 4 0 12 11 19 25 13 30 12 31 -10
7z"/>
<path d="M2410 1605 c0 -8 2 -15 4 -15 2 0 6 7 10 15 3 8 1 15 -4 15 -6 0 -10
-7 -10 -15z"/>
<path d="M2078 1587 c12 -13 22 -26 22 -30 0 -9 75 -87 84 -87 11 0 -8 35 -26
48 -10 7 -18 17 -18 23 0 11 -61 68 -74 69 -5 0 0 -10 12 -23z"/>
<path d="M2140 1590 c0 -15 9 -31 21 -38 30 -19 30 -12 3 28 -23 33 -24 33
-24 10z"/>
<path d="M2385 1552 c6 -4 21 -20 33 -36 26 -33 28 -27 7 14 -9 17 -23 30 -33
30 -10 0 -13 -3 -7 -8z"/>
<path d="M2427 1450 c3 -11 9 -17 14 -14 14 8 10 34 -5 34 -9 0 -12 -7 -9 -20z"/>
<path d="M3316 1432 c-7 -12 22 -38 31 -28 4 3 0 14 -9 22 -9 10 -18 12 -22 6z"/>
<path d="M3630 3690 c0 -5 5 -10 10 -10 6 0 10 5 10 10 0 6 -4 10 -10 10 -5 0
-10 -4 -10 -10z"/>
<path d="M4045 2831 c-7 -13 23 -41 45 -41 22 0 33 23 17 39 -13 13 -54 15
-62 2z"/>
<path d="M2566 1965 c-9 -26 -7 -32 5 -12 6 10 9 21 6 23 -2 3 -7 -2 -11 -11z"/>
<path d="M3290 1870 c-6 -11 -7 -20 -2 -20 5 0 17 9 27 20 16 18 16 20 2 20
-9 0 -21 -9 -27 -20z"/>
<path d="M3150 1856 c0 -3 9 -10 20 -16 11 -6 20 -8 20 -6 0 3 -9 10 -20 16
-11 6 -20 8 -20 6z"/>
<path d="M2331 2054 c0 -11 3 -14 6 -6 3 7 2 16 -1 19 -3 4 -6 -2 -5 -13z"/>
<path d="M2651 1964 c0 -11 3 -14 6 -6 3 7 2 16 -1 19 -3 4 -6 -2 -5 -13z"/>
<path d="M3591 1717 c-11 -11 51 -67 74 -67 11 0 31 48 23 55 -15 11 -88 21
-97 12z m79 -25 c0 -14 -11 -21 -26 -15 -21 8 -17 23 6 23 11 0 20 -4 20 -8z"/>
<path d="M3137 1607 c-11 -17 -12 -25 -2 -33 9 -9 15 -7 23 7 7 11 8 19 2 19
-5 0 -7 7 -4 15 9 22 -2 18 -19 -8z"/>
<path d="M3048 1563 c7 -3 16 -2 19 1 4 3 -2 6 -13 5 -11 0 -14 -3 -6 -6z"/>
<path d="M3070 1535 c-6 -8 -10 -20 -8 -26 2 -6 12 0 21 15 18 27 8 37 -13 11z"/>
<path d="M3125 1320 c-19 -37 -24 -101 -9 -107 6 -2 24 21 40 51 24 46 26 56
15 70 -19 23 -28 20 -46 -14z m35 1 c0 -20 -23 -71 -32 -71 -6 0 -7 7 -4 16 3
9 9 27 12 40 6 22 24 34 24 15z"/>
<path d="M3022 1317 c-18 -21 -52 -100 -52 -121 0 -18 1 -18 20 -1 23 21 60
94 60 118 0 20 -13 22 -28 4z m-17 -73 c-8 -16 -15 -24 -15 -17 0 18 24 67 27
56 2 -5 -3 -23 -12 -39z"/>
<path d="M9650 3873 c-14 -3 -53 -18 -87 -33 -124 -57 -193 -121 -193 -181 0
-14 -9 -34 -19 -43 -44 -40 -46 -80 -46 -851 0 -794 -2 -770 58 -889 71 -144
221 -227 407 -226 148 1 258 47 349 147 84 90 121 207 116 363 -4 127 -8 130
-156 130 -145 0 -149 -4 -149 -135 0 -76 -4 -104 -20 -134 -32 -64 -62 -81
-139 -81 -36 0 -77 6 -91 13 -37 18 -70 91 -70 153 0 33 -6 58 -15 68 -18 18
-19 33 -2 38 9 4 12 138 14 619 1 410 6 629 13 660 25 103 130 147 230 97 61
-32 80 -72 80 -170 0 -87 13 -126 46 -134 13 -3 68 -4 122 -2 131 4 142 13
142 113 0 98 -14 165 -51 243 -56 116 -150 198 -261 228 -50 13 -221 17 -278
7z"/>
<path d="M10474 3861 l-32 -19 -1 -180 c-1 -158 0 -180 15 -186 11 -4 14 -12
9 -24 -13 -33 -15 -86 -20 -924 l-6 -846 23 -16 c31 -22 104 -21 117 2 9 16
11 16 41 -1 38 -23 95 -16 110 14 7 12 11 97 12 212 0 105 2 273 5 372 2 99 5
491 6 871 1 637 -1 694 -16 718 -17 25 -20 26 -125 26 -88 0 -113 -4 -138 -19z"/>
<path d="M7220 3833 c-18 -23 -21 -36 -16 -78 3 -27 5 -59 5 -70 -2 -48 -2
-633 0 -765 1 -80 -1 -199 -4 -265 -4 -75 -1 -165 8 -240 14 -127 14 -150 2
-483 -8 -222 -2 -265 34 -277 21 -6 239 2 252 11 6 4 11 46 11 103 2 811 2
812 21 823 11 5 22 6 27 2 4 -5 24 -58 45 -119 20 -60 42 -120 49 -135 7 -14
25 -70 40 -125 66 -236 115 -390 141 -437 8 -14 15 -35 15 -46 0 -11 8 -29 18
-41 16 -19 28 -21 145 -22 174 -1 191 14 147 129 -11 30 -34 80 -50 112 -16
32 -27 60 -25 62 9 9 -129 372 -164 433 -10 17 -23 50 -30 75 -8 25 -17 58
-22 74 -16 51 -10 64 46 108 30 23 55 46 55 51 0 4 15 23 33 41 33 33 63 102
91 207 19 76 20 413 1 524 -27 152 -75 237 -172 302 -102 69 -123 73 -419 73
l-263 0 -21 -27z m453 -254 c66 -18 95 -53 118 -149 19 -75 21 -104 16 -260
-5 -186 -14 -229 -53 -255 -13 -8 -24 -22 -24 -31 0 -8 -4 -12 -10 -9 -5 3
-35 1 -66 -4 -31 -6 -74 -8 -94 -5 -35 6 -39 10 -49 48 -5 22 -13 77 -17 121
-8 96 -7 532 1 546 8 12 131 11 178 -2z"/>
<path d="M8362 3844 l-23 -16 6 -446 c3 -246 8 -478 10 -517 8 -125 9 -168 5
-260 -2 -49 -3 -272 -1 -493 l3 -404 23 -26 c21 -25 29 -27 87 -25 34 1 195 6
356 10 350 10 325 -2 320 144 -2 63 -8 102 -17 112 -12 15 -41 17 -232 17
-152 0 -220 3 -225 11 -4 7 -9 171 -12 365 l-5 354 170 0 c211 0 203 -6 203
138 0 97 -1 101 -26 121 -24 19 -40 21 -166 21 -114 0 -140 -3 -144 -15 -4 -8
-12 -15 -20 -15 -10 0 -14 15 -14 58 -1 73 -1 501 0 570 l0 52 219 0 c163 0
221 3 228 13 6 6 11 57 12 111 1 80 -2 103 -16 118 -15 17 -41 18 -367 18
-305 0 -355 -2 -374 -16z"/>
<path d="M11027 3846 c-19 -19 -28 -448 -28 -1411 0 -695 1 -740 17 -752 27
-19 237 -18 254 2 6 8 9 19 5 25 -4 6 -1 25 5 41 10 23 10 36 1 55 -9 20 -8
26 5 31 15 5 15 23 9 162 -9 192 -9 177 -5 399 2 113 8 186 14 190 6 4 67 7
136 7 141 0 224 21 300 76 55 40 112 131 143 227 50 155 57 527 13 673 -35
116 -99 193 -200 240 -91 43 -145 49 -412 49 -196 0 -245 -3 -257 -14z m518
-285 c20 -12 37 -35 53 -72 21 -51 22 -65 20 -279 -3 -261 -9 -285 -81 -319
-60 -28 -101 -34 -173 -26 l-64 7 0 341 c0 188 4 347 8 353 12 19 34 22 122
17 53 -3 96 -12 115 -22z"/>
</g>
</svg>
